<svg width="13" height="13" viewBox="0 0 13 13" fill="none" xmlns="http://www.w3.org/2000/svg">
<path d="M12.1959 9.40541L10.5336 7.74313C9.93993 7.14945 8.93068 7.38695 8.69321 8.1587C8.51511 8.69303 7.92144 8.98986 7.38713 8.87111C6.19978 8.57427 4.59687 7.03072 4.30003 5.784C4.12193 5.24968 4.47813 4.656 5.01244 4.47792C5.78421 4.24045 6.02168 3.23121 5.42801 2.63754L3.76573 0.975253C3.29079 0.559681 2.57838 0.559681 2.16281 0.975253L1.03483 2.10323C-0.0931502 3.29058 1.15356 6.43705 3.94383 9.22731C6.73409 12.0176 9.88056 13.3237 11.0679 12.1363L12.1959 11.0083C12.6115 10.5334 12.6115 9.82098 12.1959 9.40541Z" fill="#003180"/>
</svg>
