<svg width="12" height="17" viewBox="0 0 12 17" fill="none" xmlns="http://www.w3.org/2000/svg">
<path d="M5.56427 0.748535C2.54956 0.748535 0.0351562 3.17699 0.0351562 6.27765C0.0351562 7.45726 0.389623 8.50914 1.06991 9.49479L5.14114 15.8476C5.33865 16.1564 5.7903 16.1558 5.9874 15.8476L10.0763 9.47318C10.7419 8.53219 11.0934 7.42727 11.0934 6.27765C11.0934 3.2289 8.61303 0.748535 5.56427 0.748535ZM5.56427 8.79088C4.17854 8.79088 3.05104 7.66338 3.05104 6.27765C3.05104 4.89192 4.17854 3.76442 5.56427 3.76442C6.95 3.76442 8.07751 4.89192 8.07751 6.27765C8.07751 7.66338 6.95 8.79088 5.56427 8.79088Z" fill="#003180"/>
</svg>
