<svg width="15" height="11" viewBox="0 0 15 11" fill="none" xmlns="http://www.w3.org/2000/svg">
<path d="M8.68021 7.17989C8.34803 7.40134 7.96218 7.5184 7.56436 7.5184C7.16657 7.5184 6.78073 7.40134 6.44854 7.17989L0.977327 3.53229C0.946973 3.51206 0.9174 3.49096 0.888428 3.46926V9.44624C0.888428 10.1315 1.44454 10.6754 2.11756 10.6754H13.0111C13.6964 10.6754 14.2403 10.1193 14.2403 9.44624V3.46924C14.2113 3.49099 14.1816 3.51214 14.1512 3.5324L8.68021 7.17989Z" fill="#003180"/>
<path d="M1.41129 2.88176L6.88251 6.52938C7.08962 6.66746 7.32698 6.73649 7.56434 6.73649C7.80173 6.73649 8.03911 6.66743 8.24622 6.52938L13.7174 2.88176C14.0448 2.66362 14.2403 2.29853 14.2403 1.90449C14.2403 1.22696 13.6891 0.675781 13.0116 0.675781H2.11714C1.43964 0.675807 0.888428 1.22699 0.888428 1.90514C0.888428 2.29853 1.08391 2.66362 1.41129 2.88176Z" fill="#003180"/>
</svg>
