<svg width="12" height="13" viewBox="0 0 12 13" fill="none" xmlns="http://www.w3.org/2000/svg">
<path d="M4.93278 7.76579H5.85685C6.42873 7.76579 6.97714 7.53865 7.38151 7.13428C7.78588 6.7299 8.01302 6.1815 8.01302 5.60962C8.01302 5.03777 7.78588 4.48934 7.38151 4.08498C6.97714 3.68062 6.42873 3.45345 5.85685 3.45345H3.70068V9.61393H4.93278V7.76579ZM0.620443 0.989258H10.4772C10.6406 0.989258 10.7973 1.05416 10.9128 1.16969C11.0283 1.28523 11.0933 1.44192 11.0933 1.60531V11.4621C11.0933 11.6255 11.0283 11.7822 10.9128 11.8977C10.7973 12.0132 10.6406 12.0781 10.4772 12.0781H0.620443C0.457054 12.0781 0.300363 12.0132 0.184829 11.8977C0.0693014 11.7822 0.00439453 11.6255 0.00439453 11.4621V1.60531C0.00439453 1.44192 0.0693014 1.28523 0.184829 1.16969C0.300363 1.05416 0.457054 0.989258 0.620443 0.989258ZM4.93278 4.68555H5.85685C6.10192 4.68555 6.337 4.78291 6.51029 4.9562C6.68359 5.1295 6.78092 5.36455 6.78092 5.60962C6.78092 5.85468 6.68359 6.08977 6.51029 6.26306C6.337 6.43636 6.10192 6.53369 5.85685 6.53369H4.93278V4.68555Z" fill="#003180"/>
</svg>
