<svg width="15" height="16" viewBox="0 0 15 16" fill="none" xmlns="http://www.w3.org/2000/svg">
<circle cx="7.18518" cy="7.99231" r="6.87268" fill="#00112C"/>
<path d="M12.2281 2.94941C9.46288 0.18418 4.91729 0.18418 2.15205 2.94941C-0.613184 5.71465 -0.613184 10.2602 2.15205 13.0255C3.55361 14.427 5.37185 15.1089 7.19008 15.1089C9.00832 15.1089 10.8266 14.427 12.2281 13.0255C14.9933 10.2602 14.9933 5.71465 12.2281 2.94941ZM11.6978 12.4952C9.2356 14.9574 5.18245 14.9574 2.72025 12.4952C0.258055 10.033 0.258055 5.97981 2.72025 3.51761C3.97029 2.26758 5.59912 1.6615 7.22796 1.6615C8.8568 1.6615 10.4856 2.26758 11.7357 3.51761C14.16 5.97981 14.16 9.99508 11.6978 12.4952ZM7.41736 7.00257C7.49312 7.07833 7.56888 7.19197 7.56888 7.34349V10.98C7.56888 11.1315 7.531 11.2451 7.41736 11.3209C7.30372 11.3966 7.22796 11.4345 7.07644 11.4345C6.9628 11.4345 6.84916 11.3966 6.73552 11.3209C6.65976 11.2451 6.584 11.1315 6.584 10.98V7.34349C6.584 7.19197 6.62188 7.07833 6.73552 7.00257C6.84916 6.92681 6.92492 6.88893 7.07644 6.88893C7.22796 6.88893 7.3416 6.92681 7.41736 7.00257ZM7.531 4.95705C7.64464 5.07069 7.68252 5.18433 7.68252 5.33585C7.68252 5.48737 7.64464 5.63889 7.531 5.71465C7.41736 5.82829 7.30372 5.86617 7.11432 5.86617C6.92492 5.86617 6.81128 5.82829 6.69764 5.71465C6.584 5.60101 6.54612 5.48737 6.54612 5.33585C6.54612 5.18433 6.584 5.03281 6.69764 4.95705C6.81128 4.84341 6.9628 4.80553 7.11432 4.80553C7.26584 4.80553 7.41736 4.84341 7.531 4.95705Z" fill="#BFBFBF"/>
</svg>
