<svg width="31" height="31" viewBox="0 0 31 31" fill="none" xmlns="http://www.w3.org/2000/svg">
<path d="M15.5938 30.8975C23.878 30.8975 30.5938 24.1817 30.5938 15.8975C30.5938 7.61319 23.878 0.897461 15.5938 0.897461C7.30948 0.897461 0.59375 7.61319 0.59375 15.8975C0.59375 24.1817 7.30948 30.8975 15.5938 30.8975Z" fill="#0B1D4B"/>
<path d="M24.9086 12.913L26.7286 10.933H22.6926C20.6721 9.55281 18.232 8.74902 15.593 8.74902C12.9574 8.74902 10.5241 9.55457 8.50695 10.933H4.46094L6.28092 12.913C5.16535 13.9309 4.46604 15.397 4.46604 17.0249C4.46604 20.0969 6.95674 22.5875 10.0287 22.5875C11.4881 22.5875 12.8176 22.0247 13.8102 21.1046L15.5931 23.0459L17.376 21.1063C18.3686 22.0264 19.6964 22.5875 21.1558 22.5875C24.2278 22.5875 26.7218 20.0969 26.7218 17.0249C26.7235 15.3953 26.0242 13.9292 24.9086 12.913ZM10.0304 20.7895C7.9509 20.7895 6.2658 19.1044 6.2658 17.0249C6.2658 14.9454 7.95096 13.2602 10.0304 13.2602C12.1098 13.2602 13.795 14.9454 13.795 17.0249C13.795 19.1044 12.1098 20.7895 10.0304 20.7895ZM15.5947 16.9153C15.5947 14.4381 13.7933 12.3115 11.4155 11.4031C12.7013 10.8655 14.1118 10.5673 15.593 10.5673C17.0743 10.5673 18.4864 10.8655 19.7722 11.4031C17.3962 12.3132 15.5947 14.4381 15.5947 16.9153ZM21.1575 20.7895C19.078 20.7895 17.3928 19.1044 17.3928 17.0249C17.3928 14.9454 19.078 13.2602 21.1575 13.2602C23.237 13.2602 24.9221 14.9454 24.9221 17.0249C24.9221 19.1044 23.237 20.7895 21.1575 20.7895ZM21.1575 15.0498C20.0671 15.0498 19.1841 15.9328 19.1841 17.0232C19.1841 18.1134 20.0671 18.9965 21.1575 18.9965C22.2477 18.9965 23.1308 18.1135 23.1308 17.0232C23.1307 15.9346 22.2477 15.0498 21.1575 15.0498ZM12.0037 17.0249C12.0037 18.1151 11.1206 18.9982 10.0303 18.9982C8.94008 18.9982 8.05701 18.1152 8.05701 17.0249C8.05701 15.9346 8.94002 15.0515 10.0303 15.0515C11.1206 15.0498 12.0037 15.9346 12.0037 17.0249Z" fill="white"/>
</svg>
