<svg width="31" height="31" viewBox="0 0 31 31" fill="none" xmlns="http://www.w3.org/2000/svg">
<circle cx="15.5984" cy="15.5906" r="13.9734" fill="white"/>
<path d="M15.5938 0.59082C12.627 0.59082 9.72694 1.47055 7.2602 3.11878C4.79347 4.767 2.87088 7.10968 1.73556 9.85057C0.600249 12.5915 0.303199 15.6075 0.881977 18.5172C1.46076 21.4269 2.88937 24.0996 4.98715 26.1974C7.08494 28.2952 9.75768 29.7238 12.6674 30.3026C15.5771 30.8814 18.5931 30.5843 21.334 29.449C24.0749 28.3137 26.4176 26.3911 28.0658 23.9244C29.714 21.4576 30.5938 18.5575 30.5938 15.5908C30.5938 11.6126 29.0134 7.79726 26.2004 4.98422C23.3873 2.17117 19.572 0.59082 15.5938 0.59082ZM8.60512 18.2874C8.55052 17.7084 8.55452 17.1253 8.61705 16.5471C8.68523 15.8482 8.81819 14.8681 9.50171 14.909C9.67216 14.909 11.9597 15.8721 13.6301 16.5607C14.2574 16.8147 14.3119 17.8937 13.5756 18.1187C13.5398 18.1306 9.575 19.4482 9.33466 19.4482C8.77557 19.4158 8.65285 18.8465 8.60512 18.2874ZM15.5835 24.5346C15.5422 24.6448 15.4717 24.7418 15.3795 24.815C15.2873 24.8883 15.177 24.9351 15.0602 24.9505C14.6909 25.0141 14.0659 24.8817 13.1852 24.5533C12.379 24.2516 11.1074 23.7522 11.3784 22.9715C11.4807 22.7158 13.2619 20.6346 14.2097 19.4891C14.6494 18.9249 15.6688 19.2846 15.6381 20.0141C15.6432 20.1931 15.65 24.3437 15.5801 24.5346H15.5835ZM13.9642 14.4147L10.0693 8.16411C10.0415 8.04888 10.0448 7.92831 10.079 7.81478C10.1131 7.70125 10.1769 7.59885 10.2636 7.51809C10.8347 6.89764 13.9045 6.04536 14.7142 6.24991C14.8358 6.26972 14.9491 6.32463 15.0399 6.40791C15.1307 6.49119 15.1953 6.5992 15.2256 6.71866C15.2733 7.02718 15.6466 12.9454 15.6977 13.8777C15.7642 15.3045 14.7602 15.6863 13.9642 14.4147ZM17.0767 15.4596C17.2114 15.3232 19.4903 12.0232 19.7426 11.8527C19.8409 11.7866 19.9557 11.7493 20.0741 11.7451C20.1925 11.7408 20.3098 11.7699 20.4125 11.8289C21.0943 12.1562 22.4324 14.176 22.5159 14.9772C22.5332 15.1009 22.5168 15.2269 22.4685 15.3421C22.4202 15.4573 22.3418 15.5573 22.2415 15.6317C22.0352 15.7681 18.1813 16.68 17.9153 16.7704L17.9256 16.7482C17.2676 16.9221 16.6335 16.0596 17.0767 15.4596ZM22.6131 20.4931C22.5142 21.2601 20.9835 23.2204 20.2761 23.5067C20.1723 23.5576 20.0561 23.5775 19.9413 23.5643C19.8264 23.551 19.7178 23.505 19.6284 23.4317C19.4443 23.3022 17.3648 19.8198 17.242 19.6272C16.8415 19.0255 17.4909 18.1459 18.1795 18.3914C18.1795 18.3914 22.2278 19.7209 22.3813 19.8573C22.4758 19.9307 22.5478 20.0293 22.5888 20.1418C22.6298 20.2543 22.6382 20.376 22.6131 20.4931Z" fill="#0B1D4B"/>
</svg>
