<svg width="309" height="78" viewBox="0 0 309 78" fill="none" xmlns="http://www.w3.org/2000/svg">
<path opacity="0.35" d="M75.942 12.8888L65.2617 1.86865L0 1.86865V12.8888V70.7468H301.946V12.8888H75.942Z" fill="#FF0505"/>
<path d="M112.621 63.9502L105.817 70.7466H93.8889L100.679 63.9502H112.621Z" fill="#CA0008"/>
<path d="M134.981 63.9507L128.176 70.7471H116.248L123.039 63.9507H134.981Z" fill="#CA0008"/>
<path d="M157.339 63.9507L150.548 70.7471H138.621L145.411 63.9507H157.339Z" fill="#CA0008"/>
<path d="M179.698 63.9507L172.908 70.7471H160.966L167.77 63.9507H179.698Z" fill="#CA0008"/>
<path d="M202.057 63.9507L195.267 70.7471H183.324L190.13 63.9507H202.057Z" fill="#CA0008"/>
<path d="M224.416 63.9507L217.625 70.7471H205.698L212.489 63.9507H224.416Z" fill="#CA0008"/>
<path d="M246.775 63.9507L239.985 70.7471H228.057L234.848 63.9507H246.775Z" fill="#CA0008"/>
<path d="M269.148 63.9507L262.343 70.7471H250.415L257.221 63.9507H269.148Z" fill="#CA0008"/>
<path d="M291.507 63.9507L284.702 70.7471H272.789L279.58 63.9507H291.507Z" fill="#CA0008"/>
<path d="M301.947 63.9492V70.747H295.14L301.947 63.9492Z" fill="#CA0008"/>
<path d="M308.753 77.1753H0.0102539V75.3389H306.973V2.78796H82.9045V0.949707H308.753V77.1753Z" fill="#FF000A"/>
<path d="M178.443 0.949707V7.15727H86.6949L81.2527 0.949707H178.443Z" fill="#FF000A"/>
<path d="M178.961 8.99553H86.0715L79.0188 0.949707H178.961V8.99553ZM86.7416 7.15914H177.345V2.78796H82.909L86.7416 7.15914Z" fill="#FF000A"/>
<path d="M49.6944 54.268H19.2773C17.2161 54.268 15.6625 53.5304 14.8869 52.1923C14.1083 50.8499 14.249 49.1294 15.2776 47.3518L30.4847 21.1009C31.5075 19.3263 32.9295 18.3462 34.4831 18.3462C36.0373 18.3462 37.4607 19.3263 38.4892 21.1009L53.6921 47.3518C54.722 49.1308 54.857 50.8499 54.0785 52.1923C53.3028 53.5304 51.7501 54.268 49.6944 54.268ZM34.4831 20.1451C33.5966 20.1451 32.7324 20.8027 32.0375 22.0055L16.8353 48.252C16.1404 49.4475 16.0026 50.5332 16.4382 51.2936C16.8832 52.0525 17.8896 52.4734 19.2773 52.4734H49.6944C51.0743 52.4734 52.0821 52.0525 52.5257 51.2964C52.9657 50.5332 52.8279 49.4475 52.1336 48.252L36.9337 22.0055C36.2365 20.8027 35.3701 20.1451 34.4831 20.1451Z" fill="#CA0008"/>
<path d="M36.2451 48.5029C36.2451 49.4802 35.4588 50.2591 34.4832 50.2591C33.5125 50.2591 32.7268 49.4802 32.7268 48.5029C32.7268 47.5371 33.5125 46.7454 34.4832 46.7454C35.4588 46.7454 36.2451 47.5371 36.2451 48.5029Z" fill="#CA0008"/>
<path d="M33.9717 43.9562L32.0218 29.6246C31.8332 28.268 32.789 27.0268 34.1446 26.8356C35.508 26.6515 36.7624 27.5989 36.948 28.9584C36.973 29.1867 36.9688 29.4149 36.948 29.6246L34.9959 43.9562C34.9552 44.2274 34.7025 44.4285 34.4161 44.3927C34.1775 44.3586 34.0018 44.1732 33.9717 43.9562Z" fill="#CA0008"/>
<g style="mix-blend-mode:color-dodge">
<path d="M68.9676 36.3078C68.9676 55.3272 53.5301 70.7468 34.4835 70.7468C15.4388 70.7468 0 55.3272 0 36.3078C0 17.2884 15.4388 1.86865 34.4835 1.86865C53.5301 1.86865 68.9676 17.2884 68.9676 36.3078Z" fill="url(#paint0_radial_694_3344)"/>
</g>
<g style="mix-blend-mode:screen">
<path d="M183.844 8.66127C249.086 8.60232 301.946 10.4666 301.947 12.8239C301.941 15.1811 249.104 17.1383 183.858 17.1989C118.639 17.2565 65.7564 15.3922 65.7534 13.0364C65.758 10.6791 118.633 8.71886 183.844 8.66127Z" fill="url(#paint1_radial_694_3344)"/>
</g>
<defs>
<radialGradient id="paint0_radial_694_3344" cx="0" cy="0" r="1" gradientUnits="userSpaceOnUse" gradientTransform="translate(34.4838 36.3076) scale(34.4843 34.4386)">
<stop stop-color="#A10015"/>
<stop offset="1"/>
</radialGradient>
<radialGradient id="paint1_radial_694_3344" cx="0" cy="0" r="1" gradientUnits="userSpaceOnUse" gradientTransform="translate(183.85 12.9301) rotate(-90.0798) scale(4.26718 118.142)">
<stop stop-color="white"/>
<stop offset="0.0014" stop-color="#FFF8F7"/>
<stop offset="0.0036" stop-color="#FFE4E2"/>
<stop offset="0.0062" stop-color="#FFC3BE"/>
<stop offset="0.0092" stop-color="#FF958E"/>
<stop offset="0.0126" stop-color="#FF5A4F"/>
<stop offset="0.0162" stop-color="#FF1304"/>
<stop offset="0.0163" stop-color="#FF1000"/>
<stop offset="0.0871" stop-color="#D30D00"/>
<stop offset="0.1782" stop-color="#A20A00"/>
<stop offset="0.2742" stop-color="#770700"/>
<stop offset="0.3733" stop-color="#520500"/>
<stop offset="0.4765" stop-color="#340300"/>
<stop offset="0.585" stop-color="#1D0200"/>
<stop offset="0.7013" stop-color="#0D0100"/>
<stop offset="0.8307" stop-color="#030000"/>
<stop offset="1"/>
</radialGradient>
</defs>
</svg>
