<svg width="22" height="23" viewBox="0 0 22 23" fill="none" xmlns="http://www.w3.org/2000/svg">
<circle cx="11" cy="11.7017" r="7.27002" fill="url(#paint0_linear_1260_3583)"/>
<path d="M18.6463 4.0532C14.4221 -0.16967 7.57441 -0.168656 3.35154 4.05553C-0.87133 8.27971 -0.870316 15.1274 3.35386 19.3502C7.57805 23.5731 14.4257 23.5721 18.6486 19.3479C20.6766 17.3192 21.8157 14.5679 21.815 11.6994C21.8145 8.83131 20.6746 6.08093 18.6463 4.0532ZM16.564 15.9519C16.5635 15.9523 16.5631 15.9529 16.5626 15.9533V15.9497L16.0146 16.4941C15.3059 17.2117 14.2738 17.507 13.2928 17.2727C12.3044 17.0082 11.3649 16.5871 10.5098 16.0254C9.71527 15.5177 8.97901 14.9241 8.31431 14.2554C7.70271 13.6482 7.15326 12.9816 6.67402 12.2654C6.14983 11.4948 5.73494 10.6552 5.44111 9.77074C5.10429 8.73165 5.38341 7.59148 6.16213 6.82547L6.8038 6.1838C6.98221 6.00459 7.2721 6.00395 7.45127 6.18236C7.45173 6.18282 7.45224 6.18329 7.4527 6.1838L9.47869 8.20979C9.6579 8.38819 9.65854 8.67809 9.48013 8.85725C9.47967 8.85772 9.4792 8.85818 9.47869 8.85869L8.28905 10.0483C7.9477 10.386 7.90478 10.9225 8.18812 11.3101C8.6184 11.9006 9.09455 12.4563 9.61211 12.972C10.1891 13.5515 10.8165 14.0787 11.4867 14.5474C11.874 14.8175 12.399 14.772 12.734 14.4393L13.884 13.2712C14.0624 13.092 14.3523 13.0914 14.5314 13.2698C14.5319 13.2703 14.5324 13.2707 14.5329 13.2712L16.5625 15.3045C16.7418 15.4828 16.7424 15.7727 16.564 15.9519Z" fill="url(#paint1_linear_1260_3583)"/>
<defs>
<linearGradient id="paint0_linear_1260_3583" x1="11" y1="4.43164" x2="11" y2="18.9717" gradientUnits="userSpaceOnUse">
<stop offset="0.147839" stop-color="#F0FFF4"/>
<stop offset="1" stop-color="#FC7008"/>
</linearGradient>
<linearGradient id="paint1_linear_1260_3583" x1="11.0001" y1="0.886719" x2="11.0001" y2="22.5167" gradientUnits="userSpaceOnUse">
<stop stop-color="#FC7008"/>
<stop offset="1" stop-color="#8C3E04"/>
</linearGradient>
</defs>
</svg>
