<svg width="17" height="23" viewBox="0 0 17 23" fill="none" xmlns="http://www.w3.org/2000/svg">
<path d="M8.50009 22.5186C8.30077 22.5186 8.11261 22.4245 7.99252 22.2649L1.90302 14.0569C0.828465 12.6227 0.260254 10.9168 0.260254 9.12363C0.260254 4.58031 3.95677 0.883789 8.50009 0.883789C13.0434 0.883789 16.7399 4.58031 16.7399 9.12363C16.7399 10.9168 16.1717 12.6227 15.0972 14.0569L9.00766 22.2649C8.88758 22.4245 8.69941 22.5186 8.50009 22.5186Z" fill="url(#paint0_linear_736_2652)"/>
<path d="M8.50022 12.2929C6.75224 12.2929 5.33105 10.8712 5.33105 9.12376C5.33105 7.37636 6.75224 5.95459 8.50022 5.95459C10.2482 5.95459 11.6694 7.37636 11.6694 9.12376C11.6694 10.8712 10.2482 12.2929 8.50022 12.2929Z" fill="url(#paint1_linear_736_2652)"/>
<defs>
<linearGradient id="paint0_linear_736_2652" x1="8.50009" y1="22.5186" x2="8.50009" y2="0.883789" gradientUnits="userSpaceOnUse">
<stop stop-color="#8C3E04"/>
<stop offset="1" stop-color="#FC7008"/>
</linearGradient>
<linearGradient id="paint1_linear_736_2652" x1="8.50022" y1="12.2929" x2="8.50022" y2="5.95459" gradientUnits="userSpaceOnUse">
<stop stop-color="#FC7008"/>
<stop offset="0.9973" stop-color="#F0FFF4"/>
</linearGradient>
</defs>
</svg>
