<svg width="10" height="73" viewBox="0 0 10 73" fill="none" xmlns="http://www.w3.org/2000/svg">
<path d="M8.71483 0.877403C8.51262 0.79314 8.28107 0.839953 8.1267 0.993725L4.52895 4.57787C4.42756 4.6783 4.3706 4.81505 4.3706 4.95776V13.0515L0.5 16.9069V32.2657V37.4258V57.2349L4.3706 61.0909V68.6926C4.3706 68.8351 4.42756 68.9718 4.52867 69.0725L8.12641 72.6567C8.22923 72.7591 8.36765 72.8139 8.50806 72.8139C8.57756 72.8139 8.6479 72.8008 8.71455 72.773C8.9162 72.6899 9.04749 72.4938 9.04749 72.2765V1.3739C9.04778 1.15658 8.91648 0.960531 8.71483 0.877403ZM1.65833 56.7574V38.58L4.3706 41.2812V59.4587L1.65833 56.7574Z" fill="#FF000A"/>
</svg>
