<svg width="10" height="73" viewBox="0 0 10 73" fill="none" xmlns="http://www.w3.org/2000/svg">
<path d="M9.49982 21.2315V18.0469L5.29713 13.8604V4.96033C5.29713 4.81762 5.24018 4.68059 5.13907 4.57959L1.53933 0.993747C1.38525 0.840259 1.15283 0.793163 0.951179 0.877142C0.748963 0.960553 0.617676 1.1566 0.617676 1.37449V72.2978C0.617676 72.5154 0.748678 72.7114 0.951179 72.7943C1.01783 72.8221 1.08818 72.8352 1.15767 72.8352C1.29809 72.8352 1.43623 72.7804 1.53933 72.678L5.13907 69.0919C5.24018 68.9911 5.29713 68.8538 5.29713 68.7117V59.2981L9.49982 55.1116V32.5761L5.29713 28.3896V24.3098L9.49982 28.4963V25.3113L5.29713 21.1249V17.0451L9.49982 21.2315Z" fill="#FF000A"/>
</svg>
