<svg width="40" height="38" viewBox="0 0 40 38" fill="none" xmlns="http://www.w3.org/2000/svg">
<g id="Group">
<path id="Vector" d="M21.8566 24.311H21.1261C20.1123 24.311 19.2773 25.131 19.2773 26.1449V26.8755C19.2773 27.8894 20.1123 28.7243 21.1261 28.7243H21.8566C22.8704 28.7243 23.6904 27.8894 23.6904 26.8755V26.1449C23.6904 25.131 22.8704 24.311 21.8566 24.311Z" fill="url(#paint0_radial_1616_3597)"/>
<path id="Vector_2" d="M37.3025 32.0043C37.6454 31.1992 37.8243 30.3494 37.8243 29.4548V7.37451C37.8243 3.84106 34.9618 0.978516 31.4283 0.978516H6.39599C2.86254 0.978516 0 3.84106 0 7.37451V29.4548C0 32.9883 2.86254 35.8657 6.39599 35.8657H31.4283C32.308 35.8657 33.1727 35.6868 33.9778 35.329L35.6178 36.969C36.1247 37.4908 36.7956 37.7741 37.4367 37.7741C37.9436 37.7741 38.3909 37.5951 38.7189 37.2672L39.2407 36.7603C40.016 35.985 39.8818 34.5836 38.9425 33.6443L37.3025 32.0043ZM33.2621 28.1876L32.144 27.0546C31.7265 26.6372 31.2047 26.3837 30.6829 26.3092C30.1163 26.2346 29.6094 26.3986 29.2516 26.7565L28.7298 27.2783C28.372 27.6361 28.208 28.143 28.2825 28.7095C28.3422 29.2463 28.6105 29.7681 29.028 30.1855L30.1461 31.3037H6.39599C5.38218 31.3037 4.54727 30.4688 4.54727 29.455V7.37451C4.54727 6.36069 5.38218 5.52578 6.39599 5.52578H31.4283C32.4421 5.52578 33.2621 6.36069 33.2621 7.37451V28.1876Z" fill="url(#paint1_radial_1616_3597)"/>
<path id="Vector_3" d="M28.8492 8.11963H9.34814C8.12575 8.11963 7.1416 9.10363 7.1416 10.3113C7.1416 11.5338 8.1256 12.5178 9.34814 12.5178H26.2699V15.4698H12.658C11.6441 15.4698 10.8092 16.3047 10.8092 17.3185V26.5174C10.8092 27.7251 11.8081 28.724 13.0158 28.724C14.2383 28.724 15.2223 27.7251 15.2223 26.5174V19.8829H28.8492C29.863 19.8829 30.683 19.0629 30.683 18.0491V9.95345C30.683 8.93963 29.863 8.11963 28.8492 8.11963Z" fill="url(#paint2_radial_1616_3597)"/>
</g>
<defs>
<radialGradient id="paint0_radial_1616_3597" cx="0" cy="0" r="1" gradientUnits="userSpaceOnUse" gradientTransform="translate(111.585 25.3074) scale(108.912 108.912)">
<stop stop-color="#F37F09"/>
<stop offset="0.6099" stop-color="#E7660F"/>
<stop offset="1" stop-color="#D60200"/>
</radialGradient>
<radialGradient id="paint1_radial_1616_3597" cx="0" cy="0" r="1" gradientUnits="userSpaceOnUse" gradientTransform="translate(17.9361 19.3763) scale(26.1755 26.1755)">
<stop stop-color="#F37F09"/>
<stop offset="0.6099" stop-color="#E7660F"/>
<stop offset="1" stop-color="#D60200"/>
</radialGradient>
<radialGradient id="paint2_radial_1616_3597" cx="0" cy="0" r="1" gradientUnits="userSpaceOnUse" gradientTransform="translate(21.0155 18.4218) scale(14.5175)">
<stop stop-color="#F37F09"/>
<stop offset="0.6099" stop-color="#E7660F"/>
<stop offset="1" stop-color="#D60200"/>
</radialGradient>
</defs>
</svg>
