<svg width="13" height="15" viewBox="0 0 13 15" fill="none" xmlns="http://www.w3.org/2000/svg">
<g id="Group 26">
<path id="Vector" d="M3.37217 10.4134C3.0892 10.4701 2.90556 10.7458 2.96227 11.0287C3.01898 11.3117 3.29467 11.4953 3.57764 11.4386C3.86061 11.3819 4.04425 11.1062 3.98754 10.8233C3.93083 10.5403 3.65515 10.3567 3.37217 10.4134ZM3.26841 7.23482C2.98543 7.29153 2.8018 7.56722 2.85851 7.85019C2.91522 8.13317 3.1909 8.3168 3.47387 8.26009C3.75685 8.20338 3.94048 7.9277 3.88378 7.64472C3.82707 7.36175 3.55138 7.17811 3.26841 7.23482ZM9.52277 6.51465C9.46606 6.23168 9.19038 6.04804 8.9074 6.10475C8.62443 6.16146 8.44079 6.43715 8.4975 6.72012C8.55421 7.0031 8.82989 7.18673 9.11287 7.13002C9.39584 7.07331 9.57948 6.79763 9.52277 6.51465ZM11.4646 8.33892L10.584 5.84715C10.3824 5.27755 9.80884 4.92751 9.21693 4.98854L9.06047 4.2078C8.69227 2.37052 6.89735 1.17535 5.06058 1.54344C3.22379 1.91154 2.02801 3.70605 2.39621 5.54334L2.55267 6.32408C1.98357 6.49625 1.58902 7.03922 1.62257 7.64304L1.77053 10.2811C1.77621 10.3946 1.7901 10.5091 1.81711 10.62C2.38154 12.9575 4.88917 14.3751 7.52618 13.8467C10.1632 13.3182 11.9309 11.0438 11.5515 8.66915C11.5333 8.55709 11.5025 8.44595 11.4646 8.33892ZM2.90884 5.4406C2.59735 3.8863 3.60848 2.36767 5.16331 2.05608C6.71813 1.74449 8.23635 2.75622 8.54783 4.31053L8.70193 5.07948L8.1893 5.18222L8.0352 4.41327C7.78032 3.14142 6.53789 2.31383 5.26605 2.56871C3.9942 2.82359 3.16659 4.06602 3.42148 5.33787L3.57558 6.10682L3.06294 6.20955L2.90884 5.4406ZM7.52257 4.516L7.67677 5.28546L4.08831 6.0046L3.93411 5.23514C3.73583 4.24575 4.37939 3.27962 5.36878 3.08135C6.35816 2.88307 7.32429 3.52662 7.52257 4.516ZM7.42345 13.334C5.06326 13.807 2.82362 12.5613 2.32522 10.4973C2.30592 10.417 2.29635 10.3346 2.29201 10.2518L2.14446 7.6131C2.12248 7.22665 2.39262 6.87711 2.773 6.80088L9.19735 5.51342C9.57721 5.4373 9.9617 5.65565 10.0903 6.02073L10.9709 8.5125C10.9988 8.59062 11.0218 8.67079 11.0349 8.75189C11.3702 10.848 9.78362 12.8611 7.42345 13.334ZM10.0364 9.07783C9.75346 9.13454 9.56983 9.41022 9.62654 9.69319C9.68324 9.97617 9.95893 10.1598 10.2419 10.1031C10.5249 10.0464 10.7085 9.7707 10.6518 9.48773C10.5951 9.20475 10.3194 9.02112 10.0364 9.07783ZM7.11525 11.7961C6.83227 11.8528 6.64864 12.1285 6.70535 12.4115C6.76205 12.6945 7.03774 12.8781 7.32071 12.8214C7.60369 12.7647 7.78732 12.489 7.73061 12.206C7.67391 11.9231 7.39822 11.7394 7.11525 11.7961ZM5.92214 7.26609C5.47526 7.45749 5.16148 7.91123 5.14106 8.39469C5.11849 8.93137 5.41173 9.41275 5.88297 9.63825L6.08946 10.6686C6.17442 11.0926 6.58856 11.3685 7.01251 11.2835C7.43646 11.1985 7.71233 10.7844 7.62736 10.3604L7.42077 9.32954C7.69196 9.02511 7.8093 8.60754 7.72907 8.20717C7.6514 7.81962 7.40601 7.49181 7.05599 7.30708C6.70545 7.12244 6.29233 7.10712 5.92214 7.26609ZM6.96305 9.04908C6.89324 9.11052 6.86149 9.20487 6.87978 9.29612L7.1137 10.4634C7.14196 10.6044 7.05024 10.7427 6.90875 10.7711C6.76727 10.7994 6.62932 10.7071 6.60107 10.5661L6.36715 9.39885C6.34886 9.3076 6.28321 9.23277 6.19502 9.20246C5.8562 9.08693 5.6467 8.77859 5.66215 8.41663C5.67454 8.12994 5.86105 7.86061 6.12668 7.74659C6.18173 7.7233 6.23791 7.70564 6.29379 7.69444C6.47065 7.659 6.64958 7.68446 6.81121 7.76991C7.02155 7.88026 7.16876 8.07738 7.21541 8.31011C7.27078 8.58376 7.17686 8.86012 6.96305 9.04908Z" fill="#000A19"/>
<path id="Vector_2" d="M11.464 8.3387L10.5834 5.84687C10.3817 5.27673 9.80826 4.9272 9.21674 4.98762L9.06048 4.20788C8.69228 2.37056 6.89782 1.17525 5.06049 1.54346C3.22314 1.91167 2.02784 3.70613 2.39604 5.54346L2.55241 6.32371C1.98277 6.49598 1.58832 7.03948 1.62239 7.64321L1.77035 10.2813C1.77654 10.3947 1.79053 10.5098 1.81693 10.6202C2.38148 12.9584 4.88958 14.3754 7.52615 13.847C10.1627 13.3186 11.931 11.0441 11.5511 8.66945C11.5333 8.55677 11.5019 8.44522 11.464 8.3387ZM3.5775 11.4389C3.29504 11.4955 3.01883 11.312 2.96212 11.029C2.90541 10.746 3.08956 10.4702 3.37203 10.4136C3.6545 10.357 3.93071 10.5405 3.98742 10.8235C4.04413 11.1065 3.85997 11.3823 3.5775 11.4389ZM3.47374 8.26028C3.19127 8.31689 2.91506 8.13335 2.85835 7.85037C2.80164 7.56739 2.9858 7.29159 3.26826 7.23498C3.55073 7.17838 3.82694 7.36191 3.88365 7.6449C3.94036 7.92788 3.7562 8.20367 3.47374 8.26028ZM7.32068 12.8217C7.03821 12.8783 6.76201 12.6948 6.7053 12.4118C6.64859 12.1288 6.83274 11.853 7.11521 11.7964C7.39768 11.7398 7.67388 11.9233 7.73059 12.2063C7.7873 12.4893 7.60315 12.7651 7.32068 12.8217ZM7.42074 9.32975L7.62734 10.3607C7.7123 10.7846 7.43643 11.1988 7.01247 11.2838C6.58851 11.3687 6.17436 11.0928 6.0894 10.6689L5.8829 9.63847C5.41165 9.41297 5.11839 8.93157 5.14097 8.39488C5.16139 7.9114 5.47519 7.45766 5.92207 7.26625C6.68647 6.9403 7.5697 7.40958 7.72956 8.20725C7.80928 8.60773 7.69193 9.02531 7.42074 9.32975ZM7.67664 5.28506L4.08809 6.00422L3.93398 5.23525C3.7357 4.24584 4.37929 3.27968 5.3687 3.0814C6.35811 2.88312 7.32426 3.52668 7.52254 4.51609L7.67664 5.28506ZM8.4975 6.72027C8.44079 6.43729 8.62494 6.16149 8.90741 6.10488C9.18988 6.04828 9.46608 6.23181 9.52279 6.5148C9.5795 6.79778 9.39535 7.07357 9.11288 7.13018C8.83041 7.18679 8.55421 7.00325 8.4975 6.72027ZM10.2419 10.1033C9.95948 10.1599 9.68327 9.9764 9.62656 9.69341C9.56985 9.41043 9.754 9.13464 10.0365 9.07803C10.3189 9.02142 10.5951 9.20496 10.6519 9.48794C10.7086 9.77092 10.5244 10.0467 10.2419 10.1033Z" fill="#A3A3A3"/>
</g>
</svg>
