<svg width="21" height="21" viewBox="0 0 21 21" fill="none" xmlns="http://www.w3.org/2000/svg">
<g id="Frame" clip-path="url(#clip0_1982_4136)">
<g id="Group">
<path id="Vector" d="M13.0586 14.624C12.8288 14.2698 12.7011 14.2698 12.2926 14.624C12.0117 14.8692 11.7819 15.2776 11.7819 15.5228C11.7819 16.2039 11.3478 16.34 10.8882 15.7951C10.5818 15.4412 10.5818 15.3322 10.8882 15.3322C11.0925 15.3322 12.3181 14.1881 13.5693 12.7715C13.6877 12.6407 13.8012 12.5165 13.9115 12.3963V12.1954C13.9115 11.5296 13.7352 10.9046 13.4281 10.3632C13.2945 10.4532 13.135 10.4763 12.9309 10.4555C12.4713 10.4285 12.267 10.5646 12.3181 11.0005C12.3436 11.4639 12.1649 11.5454 11.45 11.4093C10.9648 11.3273 10.4541 11.4093 10.352 11.5725C10.2498 11.7631 9.99451 11.9268 9.79023 11.9268C9.61149 11.9268 9.79023 11.5454 10.1988 11.0821C10.9393 10.2378 10.9393 10.2103 10.3264 9.74743C9.81572 9.33858 9.79023 9.17542 10.1222 8.79363C10.4796 8.43978 10.6329 8.46683 10.9648 8.95727C11.5982 9.84952 12.2058 9.72155 11.6914 8.78822C11.2311 8.58399 10.7224 8.46951 10.1871 8.46928C10.6128 8.46889 11.0044 8.32346 11.3184 8.08177C11.185 7.79225 11.0708 7.50047 11.0159 7.29536C10.8371 6.66879 10.9648 6.5327 11.7564 6.39656C11.8592 6.38325 11.9502 6.37247 12.031 6.36443C11.9117 5.45122 11.1304 4.74316 10.1855 4.74316C8.22536 4.81754 7.82375 7.06389 8.97715 8.03258C9.05546 7.92023 9.21185 7.84031 9.40721 7.84031C9.68809 7.84031 9.81572 8.0039 9.71358 8.1946C9.67748 8.2523 9.62493 8.3097 9.56478 8.36029C9.75037 8.42223 9.95669 8.46055 10.1843 8.46924C8.2648 8.46985 6.68042 9.92975 6.48047 11.7976C6.93616 12.0802 7.34178 12.4358 7.68201 12.8473C7.83906 12.4926 8.47087 12.3199 8.87099 12.5808C9.12629 12.744 9.10075 12.9892 8.76885 13.4796C8.56083 13.7798 8.44136 13.9346 8.37271 13.9531C8.65001 14.5668 8.80448 15.2473 8.80448 15.9633V16.5912C8.80448 17.5075 8.39148 18.3499 7.71546 18.9111V20.4008C7.71546 20.4635 7.72558 20.5238 7.74383 20.5804C7.8495 20.5842 7.92973 20.6879 7.94758 20.8671C8.0461 20.9421 8.16848 20.9871 8.30148 20.9871H12.0695C12.3935 20.9871 12.6555 20.7246 12.6555 20.4008V16.4539C13.3855 16.2085 13.9115 15.5183 13.9115 14.7073V14.6062C13.4652 14.8849 13.2021 14.8754 13.0586 14.624ZM8.51347 18.7921C8.3858 18.3017 8.48794 18.1926 8.94756 18.3017C9.2795 18.4108 9.56042 18.683 9.56042 18.9557C9.56042 19.6638 8.69222 19.5277 8.51347 18.7921ZM11.6542 16.9395C10.9903 17.7842 10.6584 17.8928 10.352 17.3754C10.2498 17.1847 10.4285 17.0486 10.735 17.0486C11.0669 17.0486 11.5521 16.8304 11.7819 16.6127C12.0372 16.3675 11.9862 16.5307 11.6542 16.9395Z" fill="#1A71FF"/>
<path id="Vector_2" d="M2.04297 10.3739C2.04297 11.4012 2.87897 12.237 3.906 12.237C4.933 12.237 5.76899 11.4012 5.76899 10.3739C5.67498 7.90562 2.13598 7.90631 2.04297 10.3739Z" fill="#1A71FF"/>
<path id="Vector_3" d="M8.28269 13.5343C8.28269 13.18 8.12949 13.0169 7.95075 13.1255C7.9367 13.1341 7.92356 13.1399 7.91016 13.1465C8.05192 13.3474 8.17868 13.5596 8.28942 13.7811C8.28449 13.7163 8.28269 13.6346 8.28269 13.5343Z" fill="#1A71FF"/>
<path id="Vector_4" d="M18.4971 15.0599C18.4971 14.6569 19.0672 14.176 19.3035 14.3974C19.8349 14.0738 20.1912 13.4895 20.1912 12.8232V11.6437C19.9997 11.8121 19.794 11.9268 19.6717 11.9268C19.4733 11.9268 19.7093 11.515 20.1912 10.9671V8.85742C20.0938 8.96292 20.0022 9.01442 19.9271 8.98435C19.6972 8.90273 18.5482 9.9106 17.3481 11.2728C16.4178 12.2923 15.6756 13.0696 15.0842 13.6337V14.7071C15.0842 15.6235 14.6712 16.4658 13.9941 17.027V20.4006C13.9941 20.7244 14.2572 20.9869 14.5812 20.9869H14.9483C14.9566 20.9817 14.9644 20.9767 14.9734 20.9714C15.2473 20.7823 15.4801 20.8105 15.5701 20.9869H18.3482C18.6721 20.9869 18.9352 20.7244 18.9352 20.4006V15.0186C18.6577 15.2524 18.4971 15.2662 18.4971 15.0599ZM18.6503 13.0167C18.7525 13.0983 18.5227 13.4526 18.1652 13.8064C17.8077 14.1336 17.5268 14.2698 17.5268 14.0516C17.5268 13.6432 18.4461 12.7985 18.6503 13.0167ZM16.4544 18.1656C16.0969 17.7843 16.2501 17.3754 16.7352 17.3754C16.9906 17.3754 17.2204 17.5115 17.2204 17.7022C17.2204 18.1381 16.7097 18.4378 16.4544 18.1656ZM17.5523 16.9666C16.7608 16.0949 16.8629 15.9042 17.9609 16.2039C18.4971 16.3401 18.8036 16.6673 18.8036 17.0757C18.8035 17.9204 18.3439 17.8929 17.5523 16.9666Z" fill="#1A71FF"/>
<path id="Vector_5" d="M16.5817 10.6462C16.5817 10.8914 17.5009 10.0197 18.65 8.71206C19.142 8.13943 19.6144 7.62954 19.9986 7.24858C19.9293 7.04147 19.8433 6.84195 19.7404 6.65274C19.5515 6.8921 19.3389 7.14657 19.1096 7.40445C18.1903 8.49434 17.2967 9.52924 17.1435 9.69288C16.9902 9.88353 16.8881 9.77446 16.8881 9.44766C16.8881 9.00826 18.3016 7.23094 19.3871 6.11997C19.0276 5.66568 18.5651 5.29685 18.0346 5.04932C17.5257 5.63625 16.9771 6.03524 16.786 5.93319C16.5817 5.85161 16.2753 6.12389 16.0965 6.55976C15.9178 6.99564 15.4582 7.48602 15.0496 7.67667C14.6453 7.85427 14.2412 8.43401 14.002 9.12898C14.4913 9.73687 14.8388 10.4635 14.9935 11.2583C16.1317 10.1242 16.5627 9.97619 16.5817 10.6462Z" fill="#1A71FF"/>
<path id="Vector_6" d="M7.63169 15.9634C7.63169 13.9021 5.96368 12.2373 3.90572 12.2373C1.84368 12.2373 0.179688 13.906 0.179688 15.9634V16.5914C0.179688 17.3696 0.664618 18.0354 1.34789 18.3049C1.37272 18.1838 1.44531 18.0556 1.56731 17.8928C2.40998 16.8304 3.45688 17.5115 2.84406 18.7376C2.43551 19.5547 2.10352 19.6093 1.56731 18.9012C1.51345 18.8293 1.46962 18.7644 1.43471 18.7037V20.401C1.43471 20.7248 1.69769 20.9873 2.02169 20.9873H4.60395C4.88789 20.7468 5.08879 20.6105 5.14218 20.6447C5.24414 20.7173 5.28823 20.8503 5.27705 20.9873H5.7897C6.1127 20.9873 6.37573 20.7248 6.37573 20.401V18.338C7.1047 18.0926 7.6317 17.4024 7.6317 16.5914L7.63169 15.9634ZM2.66532 16.6673C2.56318 16.4491 2.61425 16.1494 2.76746 15.9587C3.15048 15.5774 4.45271 16.1493 4.45271 16.6943C4.45271 17.1572 2.94619 17.1302 2.66532 16.6673Z" fill="#1A71FF"/>
<path id="Vector_7" d="M16.3779 2.69146C17.0673 3.31799 16.3523 4.51652 15.4076 4.32586C15.3811 4.32093 15.3568 4.31701 15.3323 4.31303C15.6462 4.55497 16.0379 4.70062 16.4637 4.70119C15.8729 4.70145 15.3142 4.84017 14.8176 5.08599C14.8186 5.09634 14.8192 5.10546 14.8203 5.11602C14.8969 5.82413 14.6926 6.2875 13.9266 7.0231C13.3904 7.56809 13.1094 7.75874 13.3393 7.43151C13.6198 7.03243 13.664 6.74724 13.4345 6.2627C13.154 6.65427 12.948 7.10214 12.8359 7.58589C12.8588 7.76515 12.9479 7.94035 13.0839 8.03097C13.3393 8.19461 14.0032 7.67667 14.8969 6.61428C15.5996 5.7879 16.1325 5.1667 16.5425 4.7031C16.5177 4.70262 16.493 4.70127 16.4681 4.70123C16.495 4.70123 16.5212 4.69835 16.5478 4.69721C17.4444 3.68361 17.7508 3.42705 17.961 3.42705C18.1142 3.42705 18.0632 3.64476 17.8589 3.91748C17.7379 4.07723 17.6693 4.19783 17.6435 4.2812C18.0622 3.93926 18.3302 3.41958 18.3302 2.83823C18.2363 0.369973 14.6973 0.370671 14.6032 2.83828C14.6032 3.07397 14.649 3.29872 14.7293 3.50648C15.7151 2.50006 16.004 2.36719 16.3779 2.69146Z" fill="#1A71FF"/>
</g>
</g>
<defs>
<clipPath id="clip0_1982_4136">
<rect width="20.011" height="20" fill="white" transform="translate(0.179688 0.987305)"/>
</clipPath>
</defs>
</svg>
