<svg width="26" height="21" viewBox="0 0 26 21" fill="none" xmlns="http://www.w3.org/2000/svg">
<g id="Frame" clip-path="url(#clip0_1982_4118)">
<g id="Group">
<path id="Vector" d="M8.95312 8.47306C8.99675 8.53721 9.04176 8.60027 9.08838 8.66197C9.22028 8.46375 9.28646 8.32748 9.254 8.29285C9.22738 8.26434 9.11579 8.33529 8.95312 8.47306Z" fill="#1A71FF"/>
<path id="Vector_2" d="M7.3716 11.6421C7.31981 11.7688 7.28003 11.9045 7.25586 12.0379C7.46107 11.9417 7.67104 11.853 7.88543 11.7729C7.71735 11.7224 7.54561 11.6793 7.3716 11.6421Z" fill="#1A71FF"/>
<path id="Vector_3" d="M4.55621 18.4649C4.16466 18.1515 3.73395 17.0446 4.00804 17.0446C4.05031 17.0446 4.11833 17.0651 4.20292 17.1001C4.13459 16.8746 4.08923 16.6428 4.06954 16.4062C4.06479 16.344 4.06292 16.282 4.0615 16.2201C3.2386 17.1062 2.54405 17.4311 3.30325 16.5224C3.55776 16.23 3.65565 16.0002 3.53818 16.0002C3.42072 15.9795 3.47945 15.8329 3.6948 15.666C3.94931 15.478 4.08636 14.9766 4.06677 14.3711C4.04719 13.3475 3.94931 13.2013 3.5186 13.6609C3.32283 13.8696 3.22494 13.786 3.12706 13.4311C3.04874 13.0758 3.2641 12.6373 3.83185 12.0525C3.95806 11.9237 4.07765 11.7901 4.18552 11.6611C3.15873 11.8842 2.19558 12.3147 1.44349 12.9418C0.560729 13.6846 0.108795 14.6184 0.188744 15.5745C0.269803 16.5406 0.861641 17.38 1.86432 17.9519C2.82702 18.507 4.03512 18.758 5.23877 18.7291C5.20303 18.6955 5.16854 18.6613 5.13434 18.6269C4.94796 18.6549 4.73795 18.6082 4.55621 18.4649Z" fill="#1A71FF"/>
<path id="Vector_4" d="M6.48156 11.5105C6.29896 11.4951 6.11508 11.4865 5.93058 11.4844C5.79985 11.7941 6.05814 11.8133 6.48156 11.5105Z" fill="#1A71FF"/>
<path id="Vector_5" d="M10.4494 1.71324C10.5662 1.60869 10.6771 1.51188 10.7823 1.42236C10.2571 1.67446 9.78571 2.02725 9.39062 2.45708C9.49867 2.48807 9.88272 2.22231 10.4494 1.71324Z" fill="#1A71FF"/>
<path id="Vector_6" d="M5.00705 3.94828C4.63508 4.32429 4.45888 4.42864 4.65465 4.17812C4.83086 3.92756 4.90916 3.63484 4.81128 3.55154C4.75399 3.47521 4.79136 3.29801 4.90732 3.1103C4.62757 3.16556 4.35892 3.25611 4.106 3.37789L3.63663 3.86465L3.53322 3.72674C2.76478 4.30438 2.22868 5.20607 2.12137 6.2603C2.19163 6.25658 2.25294 6.27974 2.30536 6.32941C2.51664 6.55483 2.44184 6.78012 2.11914 6.97997C2.26947 8.60766 3.45713 9.94333 5.04763 10.184C5.30408 9.82386 5.62075 9.48362 5.75099 9.48362C5.8293 9.48362 5.8293 9.60871 5.73141 9.77597C5.66628 9.88704 5.69693 10.0538 5.79944 10.2082C6.17285 10.1787 6.52957 10.0912 6.86003 9.95297C6.86626 9.72553 6.98891 9.4221 7.19972 9.23272C7.27402 9.16934 7.33412 9.0758 7.37595 8.96935C6.63575 8.07563 6.23365 6.87532 6.33368 5.59216C6.34815 5.41897 6.37233 5.24914 6.40454 5.08265C6.32004 5.11795 6.24244 5.15182 6.18169 5.18067C5.98592 5.28502 5.92719 5.20138 6.02507 4.95083C6.08289 4.77614 6.35893 4.48007 6.65699 4.22433C6.77209 3.93747 6.91335 3.6663 7.07764 3.4147C6.71009 3.22592 6.29148 3.10046 5.8551 3.06047C5.76393 3.05217 5.67349 3.04876 5.5835 3.04785C5.54989 3.33231 5.38066 3.57714 5.00705 3.94828ZM3.75409 9.02397C3.59748 9.29561 3.18634 9.25377 3.18634 8.96142C3.18634 8.81524 3.0493 8.68978 2.87311 8.68978C2.65776 8.68978 2.54029 8.37635 2.54029 7.91703C2.54029 7.43667 2.65776 7.12324 2.85354 7.12324C3.20593 7.12324 3.93029 8.66903 3.75409 9.02397ZM6.04465 3.82285C6.22085 4.01086 5.67269 4.78391 5.35944 4.78391C5.24198 4.78391 5.14409 4.67923 5.14409 4.5541C5.14409 4.21992 5.86846 3.63484 6.04465 3.82285Z" fill="#1A71FF"/>
<path id="Vector_7" d="M5.57386 12.5955C5.65216 12.2406 5.57386 12.0944 5.28019 12.0944C5.00611 12.0944 4.90822 11.9482 4.98653 11.6973C5.00942 11.6314 5.02388 11.5748 5.03193 11.5259C4.85387 11.5443 4.67646 11.5684 4.5005 11.599C4.43727 11.6633 4.37075 11.7373 4.30133 11.8227C3.83148 12.3657 3.85105 12.4286 4.94738 13.7442C4.95012 13.7475 4.95255 13.7507 4.95525 13.7539C5.15267 13.5104 5.38177 13.2775 5.64121 13.0577C5.52187 12.9541 5.512 12.8155 5.57386 12.5955Z" fill="#1A71FF"/>
<path id="Vector_8" d="M8.16209 12.9131C8.04103 12.9858 7.92174 13.0608 7.80653 13.1403C7.80653 13.1403 7.80653 13.1403 7.80431 13.1403C7.6902 13.2198 7.58092 13.302 7.47656 13.3866C7.48771 13.388 7.49888 13.3894 7.5118 13.3894C7.65762 13.3894 7.91734 13.1782 8.16209 12.9131Z" fill="#1A71FF"/>
<path id="Vector_9" d="M21.3338 18.0888C21.5296 17.7753 21.6079 17.7546 21.7058 18.047C21.8037 18.2975 22.0974 18.1513 22.7239 17.5248L23.6048 16.6477L22.763 17.7335C22.4888 18.081 22.2933 18.3283 22.1427 18.4984C22.625 18.3703 23.0822 18.1889 23.4943 17.9512C24.497 17.3793 25.0888 16.5399 25.1699 15.5739C25.2498 14.6178 24.7979 13.684 23.9152 12.9412C23.707 12.7676 23.4827 12.6092 23.2454 12.4659C22.7211 13.0786 22.2687 13.7155 22.1953 13.9113C22.0974 14.2455 22.0778 14.2455 22.0582 13.8906C22.0394 13.6891 22.5116 13.0226 23.1239 12.3953C21.5966 11.522 19.57 11.2604 17.83 11.6763C17.8244 11.6929 17.8177 11.7071 17.8099 11.7182C17.7863 11.7433 17.75 11.7376 17.71 11.7061C17.6303 11.7267 17.551 11.7484 17.4727 11.772C17.7533 11.8768 18.0263 11.9966 18.2907 12.1289C18.3443 12.0681 18.4075 12.0186 18.4755 11.9895C18.6909 11.9062 18.8475 11.948 18.8475 12.0524C18.8475 12.1239 18.7951 12.2368 18.711 12.3554C19.0558 12.555 19.3821 12.7784 19.6824 13.0267C20.0448 13.3289 20.3485 13.6566 20.5918 14.0026C20.9407 14.1439 21.2655 14.2434 21.3534 14.2247C21.4513 14.2037 21.4317 14.4335 21.3143 14.7677C21.2646 14.9125 21.2081 15.0316 21.1462 15.1262C21.2722 15.5418 21.3223 15.971 21.2891 16.4055C21.2629 16.7209 21.192 17.0282 21.0798 17.3229C21.2184 17.6229 21.1438 17.8336 20.8335 17.8376C20.6478 18.1572 20.4092 18.4567 20.1198 18.7284C20.5331 18.7384 20.9467 18.7144 21.3509 18.6574C21.1585 18.515 21.1641 18.3505 21.3338 18.0888ZM22.4106 16.0419C22.4693 16.1255 22.3127 16.3968 22.0386 16.6477C21.7646 16.919 21.5492 17.0026 21.5492 16.8564C21.5492 16.5222 22.2344 15.8746 22.4106 16.0419Z" fill="#1A71FF"/>
<path id="Vector_10" d="M18.2812 3.41467C18.282 3.41584 18.2828 3.41708 18.2835 3.41825C18.2864 3.41527 18.2896 3.41219 18.2926 3.40918C18.2889 3.41106 18.285 3.41276 18.2812 3.41467Z" fill="#1A71FF"/>
<path id="Vector_11" d="M15.5586 19.5301C16.0677 18.8199 16.3026 18.6737 16.5571 18.9035C16.792 19.1126 17.027 19.0079 17.4968 18.4439C17.9862 17.8384 18.1429 17.7755 18.3386 18.0682C18.5344 18.3813 18.6323 18.3813 18.9455 18.1097C18.9585 18.0985 18.9704 18.0884 18.9825 18.0782C19.2441 17.6184 19.3988 17.1251 19.4373 16.6133C19.0934 16.2278 18.8833 15.8908 18.9455 15.7915C19.0043 15.666 18.7498 15.3736 18.3386 15.1228C17.6339 14.6634 17.4185 14.0784 17.8688 13.786C17.9862 13.7027 18.2799 13.9322 18.4953 14.2664C18.6298 14.4884 18.8715 14.7349 19.1294 14.9242C18.8559 14.3302 18.4105 13.7854 17.8114 13.3209C17.7937 13.3785 17.7076 13.4629 17.5555 13.598C17.2815 13.8489 17.1248 13.8489 17.0074 13.6398C16.792 13.2638 17.0074 13.0551 17.5164 13.1805C17.5722 13.1894 17.6191 13.198 17.6591 13.2069C17.628 13.1845 17.5969 13.1622 17.5651 13.1402C17.3476 12.9892 17.118 12.8517 16.88 12.7252C16.8586 12.7519 16.836 12.7784 16.8116 12.8045C16.5963 13.034 16.4005 13.1176 16.4005 12.9925C16.4067 12.846 16.4568 12.689 16.5278 12.549C15.4812 12.0624 14.2824 11.7961 13.0679 11.7505C13.1453 11.8317 13.2394 11.9135 13.3464 11.9896C14.3253 12.6583 14.0903 13.5147 12.9157 13.5562C12.0347 13.598 11.7215 13.3475 12.2501 12.9925C12.6808 12.7209 12.5046 12.3449 11.9564 12.3449C11.6627 12.3449 11.095 12.6583 10.723 13.0551C10.1944 13.598 9.97908 13.6816 9.74415 13.4518C9.5288 13.2013 9.3526 13.2431 9.01978 13.5562C8.47161 14.0784 8.45204 14.4336 8.94147 14.4336C9.13725 14.4336 9.31344 14.3082 9.31344 14.1831C9.31344 14.0369 9.4309 13.9114 9.58753 13.9114C9.74415 13.9114 9.68541 14.1202 9.45048 14.4129C9.21555 14.7053 9.07851 15.0395 9.1764 15.2064C9.27429 15.3736 9.05894 15.478 8.58908 15.478C8.17795 15.478 7.84514 15.6035 7.84514 15.7496C7.84514 15.8748 7.72767 16.0002 7.59063 16.0002C7.45358 16.0002 7.3557 15.8329 7.3557 15.6035C7.3557 15.3944 7.21866 15.2275 7.08162 15.2275C6.88584 15.2275 6.86627 15.1228 7.06204 14.8722C7.33851 14.5157 7.3097 14.0871 7.06386 13.7606C6.32149 14.5117 5.92212 15.4138 5.92383 16.3691C5.92403 16.4801 5.92983 16.5903 5.94074 16.6995C6.16188 16.4437 6.48557 16.2648 6.72922 16.3551C7.19908 16.5224 6.98372 17.3788 6.41598 17.5875C6.32837 17.6232 6.25197 17.6487 6.18399 17.6647C6.43304 18.2686 6.85692 18.8252 7.43732 19.3029C7.42854 19.2558 7.43911 19.1969 7.47317 19.1333C7.55149 18.9871 7.66894 18.8828 7.72767 18.8828C7.78641 18.8828 7.84515 18.9871 7.84515 19.1333C7.84515 19.2795 7.72767 19.405 7.57106 19.405C7.56843 19.405 7.56645 19.4042 7.56389 19.4041C7.64206 19.4646 7.72259 19.5238 7.80594 19.5815C9.04106 20.4417 10.6307 20.9058 12.2503 20.9765C12.2502 20.9749 12.2501 20.9732 12.2501 20.9715C12.2501 20.8253 12.3675 20.6999 12.5046 20.6999C12.6416 20.6999 12.7004 20.8253 12.6025 20.9715C12.5995 20.9763 12.5961 20.9809 12.5931 20.9857C12.6241 20.986 12.655 20.9872 12.686 20.9872C13.4871 20.9872 14.2874 20.89 15.0489 20.6976C14.9737 20.5488 15.2078 20.0293 15.5586 19.5301ZM7.62978 18.4231C7.29697 18.841 7.1012 18.9871 7.1012 18.778C7.1012 18.7155 7.29697 18.5068 7.5319 18.3188C7.92344 17.9846 7.92344 18.0053 7.62978 18.4231ZM11.095 17.8173C10.9384 17.8173 10.6447 17.9009 10.4294 17.9846C10.214 18.0682 10.0378 18.0264 10.0378 17.8802C10.0378 17.4206 10.4881 17.2533 10.958 17.546C11.1929 17.6922 11.2516 17.8173 11.095 17.8173ZM10.6447 16.0002C10.7426 15.854 10.8601 15.7496 10.9188 15.7496C10.9775 15.7496 11.0167 15.854 11.0167 16.0002C11.0167 16.1464 10.8992 16.2718 10.7622 16.2718C10.6251 16.2718 10.5664 16.1464 10.6447 16.0002ZM11.4865 16.794C11.3495 16.794 11.3103 16.6686 11.3886 16.5224C11.467 16.3762 11.5844 16.2718 11.6432 16.2718C11.7019 16.2718 11.7606 16.3762 11.7606 16.5224C11.7606 16.6686 11.6432 16.794 11.4865 16.794ZM13.0527 16.042C12.7003 16.3344 12.6612 16.3344 12.857 16.0209C13.0136 15.7496 12.9549 15.6867 12.622 15.8329C12.3675 15.9376 11.9172 15.7915 11.4865 15.4573C11.095 15.1645 10.6447 14.9976 10.4881 15.102C10.3119 15.2275 10.2727 15.1856 10.4098 14.9558C10.5077 14.7678 10.6056 14.4129 10.6251 14.1413C10.6447 13.8696 10.7426 13.6398 10.8405 13.6398C10.9384 13.6398 11.1341 13.6398 11.2712 13.6398C11.4082 13.6398 11.5061 13.8071 11.5061 13.974C11.5061 14.2874 12.3284 15.2064 12.6025 15.2064C12.6612 15.2064 13.0332 14.8514 13.4247 14.4129C14.0512 13.6816 14.1687 13.6398 14.6581 13.9533C15.265 14.35 15.3237 14.7678 14.8343 15.2064C14.5993 15.4154 14.4427 15.4154 14.3253 15.2275C14.1099 14.8304 13.4639 14.8933 13.4639 15.3107C13.4639 15.5198 13.2877 15.8329 13.0527 16.042ZM13.9729 20.2402C13.9729 20.0733 13.7967 19.9271 13.5813 19.9271C13.0527 19.9271 13.131 19.5511 13.8554 18.6319C14.5602 17.7337 14.9322 17.6086 14.9322 18.2559C14.9322 18.6529 14.9909 18.6529 15.4216 18.2144C16.0089 17.6504 16.0481 17.1071 15.5391 16.3137C15.3237 16.0002 15.2258 15.6242 15.3041 15.478C15.4803 15.1646 16.1655 15.1228 16.1655 15.4362C16.1655 15.5616 16.5375 16.0838 16.9878 16.606C17.7709 17.4831 17.7905 17.5668 17.3989 17.9427C16.9291 18.3813 16.5375 18.4857 16.7529 18.1097C16.8312 17.9635 16.792 17.7966 16.6746 17.7129C16.4005 17.5249 14.4623 19.3421 14.1882 20.0522C14.0708 20.3446 13.9729 20.4282 13.9729 20.2402Z" fill="#1A71FF"/>
<path id="Vector_12" d="M15.8828 20.4426C16.2034 20.3261 16.5132 20.1903 16.8095 20.0362C16.4675 19.8684 16.0792 20.0298 15.8828 20.4426Z" fill="#1A71FF"/>
<path id="Vector_13" d="M12.1021 1.02763C11.9665 1.13405 11.7505 1.25038 11.5062 1.33722C11.1147 1.48343 10.7819 1.79686 10.7819 2.02668C10.7819 2.23543 10.6252 2.42341 10.449 2.42341C9.94002 2.42341 9.19608 3.38417 9.58763 3.53034C9.80298 3.59323 9.82257 3.67655 9.62678 3.82273C9.49368 3.89381 9.14837 3.66237 8.79531 3.25817C8.51624 3.73093 8.31494 4.25825 8.20898 4.8208C8.29384 4.94877 8.3949 5.05623 8.4913 5.11797C8.70665 5.26418 8.78496 5.53582 8.68706 5.87001C8.56961 6.22491 8.60876 6.35037 8.78496 6.22491C8.94158 6.12053 9.05904 6.14128 9.05904 6.26674C9.05904 6.37112 9.39186 6.66347 9.80299 6.91436C10.4295 7.31109 10.6057 7.31109 11.1734 6.99765L11.839 6.64272L10.9581 6.07873C9.80299 5.36856 9.68552 4.90891 10.4686 4.36598C11.0755 3.92745 11.1147 3.94816 11.5454 4.49144C11.7803 4.80454 11.9174 5.22236 11.839 5.41036C11.7803 5.59837 11.839 5.84893 11.9957 5.95327C12.1523 6.03694 12.1914 6.37112 12.0935 6.66347C11.9761 7.10237 12.0152 7.16492 12.4068 7.03949C12.6417 6.93511 12.4459 7.24855 11.9369 7.70786C11.4279 8.16748 11.0168 8.68967 11.0168 8.83584C11.0168 9.10805 10.6113 9.57704 10.2998 9.77716C10.4321 9.86062 10.569 9.93722 10.7101 10.0069C11.0723 9.69748 11.4593 9.43555 11.6628 9.35804C11.9565 9.27441 12.4851 8.79405 12.8375 8.29294C13.1899 7.7915 13.7185 7.24855 14.0121 7.10238L14.5211 6.80966L13.9926 7.60349C13.6597 8.08385 13.5619 8.45986 13.6989 8.56425C14.1492 8.8566 13.973 9.3373 13.229 9.79661C12.924 9.97742 12.6926 10.2364 12.5707 10.4721C12.5714 10.4722 12.5719 10.4722 12.5725 10.4722C12.6446 10.4656 12.7235 10.4645 12.7879 10.4722C12.8034 10.4733 12.819 10.4744 12.8345 10.4744H12.8501C14.8683 10.4042 16.532 8.98759 17.068 7.05897C16.79 7.34611 16.5138 7.589 16.3027 7.70787C15.8524 7.95876 15.8328 7.93767 16.1069 7.58274C16.2831 7.37368 16.3419 6.97691 16.244 6.72636C16.1069 6.35038 16.1656 6.28747 16.5376 6.43368C16.7642 6.53966 16.9705 6.48049 17.2228 6.24255C17.2401 6.07626 17.2499 5.90753 17.2505 5.73642C17.2505 5.13311 17.1407 4.55633 16.9427 4.02497C16.7685 4.37793 16.5494 4.51219 16.2048 4.51219C15.7545 4.51219 15.6566 4.61654 15.7741 4.93001C15.9307 5.41037 15.5392 6.07874 15.0693 6.07874C14.9127 6.07874 14.7952 5.78635 14.7952 5.45216C14.8049 5.10064 15.5869 4.03792 16.4501 3.05407C16.0994 2.52308 15.6475 2.07029 15.1238 1.72476C14.8863 1.93523 14.7631 2.01153 14.8148 1.90123C14.857 1.82629 14.9146 1.73223 14.9789 1.63307C14.3049 1.22402 13.5221 0.988422 12.6868 0.988422V0.987305C12.4886 0.987305 12.2938 1.002 12.1021 1.02763ZM14.854 7.37367C15.1476 7.37367 15.7937 8.37622 15.6175 8.56423C15.5587 8.62711 15.2259 8.45986 14.854 8.2093C14.2079 7.74965 14.2079 7.37367 14.854 7.37367ZM14.3254 4.26162C14.4037 4.11541 14.5799 3.98998 14.7169 3.98998C14.854 3.98998 14.8931 4.11541 14.8148 4.26162C14.7365 4.38671 14.5603 4.51218 14.4233 4.51218C14.2862 4.51218 14.2471 4.38671 14.3254 4.26162ZM13.9534 6.37111C13.9534 6.45474 13.6206 6.83072 13.229 7.24853C12.8179 7.66601 12.4851 7.93765 12.4851 7.87511C12.4851 7.79148 12.8179 7.41546 13.229 6.99765C13.6206 6.58017 13.9534 6.30853 13.9534 6.37111ZM13.7185 2.44415C14.0121 3.00814 13.6793 3.73942 13.1507 3.73942C12.9745 3.73942 12.9745 3.61396 13.1703 3.42596C13.7381 2.82016 13.464 2.65324 12.8179 3.19615C12.1131 3.78122 11.7607 3.86452 11.7607 3.46779C11.7607 3.32161 11.839 3.21723 11.9565 3.21723C12.074 3.21723 12.3089 2.9038 12.4851 2.54886C12.8766 1.75504 13.3661 1.71324 13.7185 2.44415Z" fill="#1A71FF"/>
<path id="Vector_14" d="M22.4497 7.91688C22.3322 7.91688 22.4889 7.68708 22.8021 7.41544C22.9524 7.27515 23.1024 7.16411 23.2268 7.09534C23.2577 6.84489 23.2649 6.58723 23.2442 6.32487V6.32597C23.1585 5.30929 22.674 4.42986 21.9657 3.83802C21.2701 4.50003 21.2149 4.33532 21.7561 3.67488C21.1194 3.22062 20.333 2.98472 19.5032 3.06032C19.2077 3.08739 18.9208 3.15449 18.6519 3.25308C18.6452 3.26211 18.6392 3.27032 18.6321 3.27975C18.5378 3.40555 18.4544 3.50618 18.3835 3.58047C18.723 4.15182 18.949 4.813 19.0184 5.52859C19.316 5.23677 19.5684 5.03431 19.6501 5.03431C19.7676 5.03431 19.5131 5.45212 19.0628 5.95323C19.055 5.96187 19.0473 5.97026 19.0395 5.97883C19.0396 7.32441 18.4903 8.55078 17.5879 9.38731C18.233 9.95026 19.0902 10.2612 20.0207 10.2156C20.0751 10.2001 20.1306 10.1957 20.1872 10.2001L20.215 10.1979L20.2339 10.1957C21.6744 10.0113 22.7983 8.93185 23.1449 7.54089C22.9067 7.73881 22.6139 7.91688 22.4497 7.91688ZM22.0581 6.66343C21.7449 7.10233 21.5491 7.24851 21.5491 7.0187C21.5491 6.97687 21.7449 6.76782 21.9798 6.55906C22.3518 6.24562 22.3714 6.24563 22.0581 6.66343Z" fill="#1A71FF"/>
</g>
</g>
<defs>
<clipPath id="clip0_1982_4118">
<rect width="24.9995" height="20" fill="white" transform="translate(0.179688 0.987305)"/>
</clipPath>
</defs>
</svg>
