<svg width="21" height="21" viewBox="0 0 21 21" fill="none" xmlns="http://www.w3.org/2000/svg">
<g id="Frame" clip-path="url(#clip0_1982_4147)">
<path id="Vector" d="M19.1753 15.3542C19.0015 15.3196 18.8681 15.1936 18.8681 15.0416C18.8681 14.8628 19.0359 14.6119 19.2372 14.5047C19.4071 14.4039 19.5027 14.3768 19.5597 14.4522C19.9673 13.3486 20.1792 12.176 20.1792 10.9873C20.179 10.8161 20.1743 10.6454 20.1654 10.4753C20.0205 10.6041 19.9251 10.669 19.9251 10.6381C19.9251 10.5977 20.016 10.4774 20.1554 10.316C20.1456 10.1735 20.1327 10.0316 20.117 9.89007C19.8436 10.1392 19.7021 10.1637 19.6063 9.9936C19.4406 9.7216 19.7301 9.32593 20.0259 9.25348C19.6707 7.24637 18.7083 5.38049 17.2473 3.91969C15.3723 2.04503 12.8303 0.990459 10.1793 0.987305C9.08362 0.987305 8.00189 1.16759 6.97533 1.51491C6.92581 1.57347 6.86962 1.63605 6.8046 1.70546L6.2677 2.27826L6.55376 1.66801C5.90612 1.92005 5.28365 2.24024 4.69703 2.62495C4.65063 2.76405 4.73508 3.06502 4.90867 3.33439C5.52946 4.28336 5.21068 4.47999 4.45566 3.62079C4.20056 3.32688 4.09522 3.1786 4.11912 3.03508C3.14177 3.77973 2.31256 4.69613 1.6702 5.73694C1.66868 5.8839 1.58138 6.00493 1.47658 6.06429C1.27676 6.41746 1.09671 6.78291 0.940289 7.16045C0.184275 8.98773 -0.013722 10.9984 0.371289 12.9382C0.757275 14.878 1.71028 16.6598 3.10828 18.0584C4.50727 19.4569 6.28928 20.4093 8.22827 20.7951C10.1683 21.181 12.1793 20.983 14.0062 20.2261C14.9684 19.8275 15.8559 19.2821 16.6421 18.6162C16.5923 18.6321 16.5541 18.6299 16.5359 18.6041C16.3346 18.4071 16.8547 16.7065 17.1064 16.7065C17.4161 16.7065 17.3757 17.6884 17.0992 18.2055C17.6204 17.706 18.089 17.1494 18.4942 16.543C18.7493 16.1613 18.9764 15.7639 19.1753 15.3542ZM12.979 1.93823C13.1635 1.93823 13.4823 2.61853 13.3649 2.74386C13.3313 2.77966 13.1803 2.61853 13.0461 2.36798C12.8951 2.13521 12.8783 1.93823 12.979 1.93823ZM13.0628 3.72834C13.3816 3.72834 13.1803 4.39057 12.7944 4.62334C12.3078 4.89201 12.1568 4.9098 12.1568 4.65919C12.1568 4.44449 12.8615 3.72834 13.0628 3.72834ZM11.1334 4.21166C11.2676 3.83583 11.4354 3.72834 11.6703 3.81776C11.8716 3.90719 12.0897 3.83583 12.1904 3.69249C12.2743 3.53136 12.3917 3.45972 12.4588 3.51358C12.5092 3.58499 12.2239 3.94304 11.838 4.31887C11.4354 4.69504 11.0663 4.94559 11.0327 4.87395C10.9824 4.80224 11.0327 4.49806 11.1334 4.21166ZM9.05287 4.92752C8.95221 4.99922 8.73409 4.90979 8.59987 4.73088C8.31464 4.37278 8.53275 4.30114 8.98576 4.60561C9.15355 4.71282 9.1871 4.8381 9.05287 4.92752ZM7.64351 5.89428C7.35828 6.03762 7.12339 6.07341 7.12339 5.9837C7.12339 5.73315 7.60995 5.3037 7.89518 5.3037C8.34819 5.30369 8.21396 5.60787 7.64351 5.89428ZM7.76096 8.31105C7.67707 8.36468 7.54284 8.2752 7.47573 8.09601C7.40861 7.91716 7.44217 7.72018 7.52606 7.64854C7.62672 7.5949 7.76096 7.68433 7.82806 7.86353C7.89518 8.04243 7.86162 8.23935 7.76096 8.31105ZM5.52945 9.79669C5.94891 9.31332 6.28447 9.18804 6.28447 9.51029C6.28447 9.61779 6.0328 9.81476 5.71401 9.97589C5.14356 10.2622 5.14356 10.2622 5.52945 9.79669ZM5.86502 14.7911C5.86502 15.4533 5.54623 15.5786 5.51268 14.9164C5.49589 14.6836 5.56301 14.4153 5.66368 14.3436C5.78113 14.2719 5.86502 14.4688 5.86502 14.7911ZM6.03281 7.30851C5.89858 7.30851 5.91535 7.18323 6.08314 6.96847C6.23415 6.77155 6.38514 6.664 6.43549 6.7357C6.58648 6.87876 6.30125 7.30851 6.03281 7.30851ZM5.89857 6.41345C5.83146 6.41345 6.09991 6.05535 6.50259 5.62589C6.88848 5.19614 7.25761 4.85617 7.30794 4.85617C7.37505 4.85617 7.08982 5.19614 6.70393 5.62589C6.31803 6.05535 5.94891 6.41345 5.89857 6.41345ZM8.83476 6.41345C8.93543 6.41345 9.01931 6.664 9.01931 6.96847C9.01931 7.36208 8.90186 7.5232 8.63342 7.5232C8.4153 7.5232 8.18042 7.46963 8.09652 7.38015C7.94551 7.21902 8.54953 6.41345 8.83476 6.41345ZM8.90186 3.51358C8.83475 3.62079 8.73409 3.72834 8.68374 3.72834C8.63341 3.72834 8.59986 3.62079 8.59986 3.51358C8.59986 3.38831 8.70052 3.28081 8.81798 3.28081C8.93543 3.28081 8.98576 3.38831 8.90186 3.51358ZM7.02271 2.54689C7.92873 1.54433 8.78442 1.0254 8.14685 1.86659C7.89518 2.18879 7.91195 2.22464 8.21396 2.09936C8.4153 2.02766 8.59986 2.09936 8.68374 2.31406C8.85153 2.79744 8.58308 3.17327 8.34819 2.79744C8.21396 2.58274 8.18041 2.61853 8.21396 2.94078C8.26429 3.22719 8.11329 3.45973 7.81128 3.60301C7.54284 3.72834 7.3415 3.94305 7.3415 4.06832C7.3415 4.42643 5.79791 5.96592 5.44556 5.96592C5.27778 5.96592 5.56301 5.50061 6.08313 4.9098C6.60325 4.31887 7.1066 3.78192 7.20726 3.71056C7.30794 3.62079 7.32472 3.44194 7.24082 3.28081C7.12338 3.10191 6.93882 3.17326 6.58648 3.53136C5.69723 4.42642 6.04958 3.63886 7.02271 2.54689ZM5.39523 4.37279C5.73079 4.08638 5.73079 4.10417 5.47912 4.46227C5.19389 4.82031 5.02611 4.94559 5.02611 4.76639C5.02611 4.71282 5.19389 4.53392 5.39523 4.37279ZM4.67377 10.6918C5.07644 10.3517 5.52945 10.835 5.21067 11.2646C4.90866 11.6585 4.40532 11.6404 4.40532 11.2468C4.40532 11.0856 4.52276 10.835 4.67377 10.6918ZM5.12677 16.08C5.00933 16.1514 4.74088 16.1337 4.52276 16.0442C4.28787 15.9545 4.20398 15.8292 4.30464 15.7578C4.42209 15.7039 4.69054 15.722 4.90866 15.7936C5.12677 15.8831 5.22745 16.0084 5.12677 16.08ZM4.23754 7.39793C4.38854 7.3085 4.43888 7.32629 4.35499 7.416C4.27109 7.5232 4.30465 7.73825 4.4221 7.89909C4.60666 8.13186 4.58988 8.20356 4.32144 8.20356C4.13687 8.20356 3.98587 8.06021 3.98587 7.88131C3.98587 7.7024 4.1033 7.48741 4.23754 7.39793ZM3.24762 9.00913C3.44896 8.68688 3.70064 8.43633 3.80131 8.43633C4.13687 8.43633 3.96909 8.75858 3.43218 9.18804L2.89529 9.59972L3.24762 9.00913ZM2.30805 4.94559C2.45906 4.76639 2.61005 4.65918 2.6604 4.71282C2.81139 4.87395 2.52617 5.30369 2.25772 5.30369C2.12349 5.30369 2.14027 5.16035 2.30805 4.94559ZM1.35169 7.5232C1.18392 7.2368 1.83826 6.41344 2.24094 6.41344C2.39194 6.41344 2.61006 6.18067 2.71073 5.91234C2.81139 5.62588 2.91206 5.53617 2.91206 5.6973C2.94562 6.19875 1.98926 7.75603 1.65371 7.75603C1.56981 7.75603 1.41881 7.64854 1.35169 7.5232ZM2.50939 7.91716C2.50939 8.02465 2.40871 8.13186 2.27449 8.16771C2.14027 8.22128 2.07316 8.14993 2.12349 8.00658C2.20738 7.72018 2.50939 7.66655 2.50939 7.91716ZM1.90538 11.7659C1.77115 11.9626 1.73759 11.8554 1.75437 11.372C1.77115 10.9962 1.85504 10.62 1.93893 10.5306C2.15704 10.2978 2.12349 11.3898 1.90538 11.7659ZM2.92885 16.4917C2.81139 16.4917 2.72751 16.3842 2.72751 16.2589C2.72751 16.1337 2.81139 16.0442 2.92885 16.0442C3.04629 16.0442 3.14696 16.1337 3.14696 16.2589C3.14696 16.3842 3.04629 16.4917 2.92885 16.4917ZM2.99595 13.896C3.04629 14.0213 2.87851 14.3078 2.61006 14.5225C2.25772 14.8089 2.10671 14.8447 2.0396 14.63C1.98926 14.4866 2.05638 14.1824 2.17383 13.9677C2.45906 13.4844 2.1906 13.1979 1.78793 13.5738C1.28458 14.0213 1.41881 13.4844 1.93893 12.9474C2.37516 12.4999 3.98587 12.106 3.98587 12.446C3.98587 12.5354 3.7342 12.8399 3.44896 13.1263C3.16374 13.4305 2.9624 13.7708 2.99595 13.896ZM3.56642 15.6503C3.56642 15.5428 3.75097 15.2564 3.98587 15.0239C4.20399 14.8089 4.40532 14.7194 4.40532 14.8447C4.40532 14.97 4.20399 15.2564 3.98587 15.4714C3.75097 15.7039 3.56642 15.7756 3.56642 15.6503ZM5.36167 18.246C5.14355 18.6219 4.40532 18.5502 4.40532 18.1565C4.40532 17.9773 4.30464 17.8162 4.1872 17.8162C4.06975 17.8162 3.98586 17.6732 3.98586 17.494C3.98586 17.2971 4.06975 17.154 4.1872 17.154C4.30464 17.154 4.40532 17.2615 4.40532 17.3687C4.40532 17.494 4.53955 17.6015 4.70732 17.6015C4.89188 17.6015 5.02611 17.7627 5.02611 17.9415C5.02611 18.1565 5.12677 18.2279 5.27778 18.1385C5.42879 18.0491 5.46234 18.0848 5.36167 18.246ZM6.68715 19.5346C6.35158 19.9644 6.08314 19.9108 6.08314 19.4094C6.08314 19.0871 6.1838 19.0158 6.50259 19.1052C6.83816 19.1947 6.87172 19.2841 6.68715 19.5346ZM6.51936 16.9034C5.54623 17.2076 5.17712 17.2256 5.34489 16.9392C5.41201 16.814 5.59657 16.7781 5.76434 16.8495C5.96568 16.9392 6.08313 16.8495 6.08313 16.599C6.08313 16.08 6.62003 15.5609 7.00593 15.722C7.64351 15.9903 7.37506 16.617 6.51936 16.9034ZM6.90527 12.6788C6.13347 13.3769 5.94891 13.4485 5.78113 13.1621C5.61335 12.8757 6.30125 11.9626 6.60326 12.0879C6.73749 12.1418 6.97238 12.0879 7.08983 11.9449C7.22405 11.8196 7.39183 11.7659 7.47573 11.8554C7.55962 11.9449 7.30794 12.3207 6.90527 12.6788ZM7.59317 9.49251C7.6435 9.33138 7.86162 9.17026 8.07973 9.13441C8.4153 9.06277 8.43207 9.09861 8.19718 9.40274C7.86162 9.83249 7.47572 9.88612 7.59317 9.49251ZM8.07973 18.7293C7.7945 18.6219 7.74417 18.5324 7.94551 18.4071C8.07973 18.2996 8.16363 18.1026 8.09652 17.9238C8.04617 17.7627 8.14685 17.494 8.33141 17.3329C8.53275 17.1718 8.61664 17.154 8.53275 17.2971C8.44886 17.4404 8.46563 17.8162 8.58309 18.1385C8.81798 18.7829 8.66697 18.9618 8.07973 18.7293ZM13.5492 14.3573C13.3793 14.5277 13.1482 14.6235 12.9072 14.6235C12.6653 14.6235 12.4343 14.5277 12.2643 14.3573L10.5929 12.6857C10.5682 12.725 10.5361 12.7591 10.4958 12.7863C10.3616 12.8577 10.2777 12.804 10.2777 12.661C10.2777 12.4999 10.2106 12.446 10.1267 12.5354C10.0596 12.6071 9.85822 12.464 9.69044 12.2135C9.52798 11.9613 9.48913 11.7577 9.54507 11.6379L9.53726 11.63C9.36626 11.4596 9.27026 11.2284 9.27026 10.9873V10.7532C9.04302 10.9555 8.38174 10.9212 8.38174 10.6917C8.38174 10.5664 8.49919 10.4411 8.65019 10.3876C8.88406 10.2967 9.14467 10.3426 9.27026 10.4521V5.53278C9.27026 5.29164 9.36627 5.06042 9.53624 4.88995C9.70726 4.71947 9.93825 4.62368 10.1792 4.62368C10.4202 4.62368 10.6523 4.71947 10.8223 4.88995C10.9932 5.06042 11.0882 5.29164 11.0882 5.53278V8.38017C11.1821 8.30737 11.2816 8.28621 11.3515 8.32883C11.4786 8.41022 11.323 8.72003 11.0882 9.00672V10.6109L13.5492 13.0718C13.7203 13.2423 13.8153 13.4735 13.8153 13.7146C13.8153 13.9556 13.7203 14.1868 13.5492 14.3573ZM18.8513 12.6788C18.7339 12.6788 18.7003 12.5712 18.7674 12.464C18.8345 12.3387 18.9352 12.2313 18.9855 12.2313C19.0359 12.2313 19.0862 12.3387 19.0862 12.464C19.0862 12.5712 18.9855 12.6788 18.8513 12.6788ZM19.2876 8.04243C19.2876 8.07829 19.0023 8.41826 18.65 8.77636C18.2976 9.13441 18.0627 9.27746 18.1299 9.09861C18.2473 8.79414 19.2876 7.84546 19.2876 8.04243ZM18.4486 7.20101C18.4319 7.32629 18.0124 7.91716 17.4923 8.50769C16.9889 9.09861 16.5695 9.51029 16.5695 9.40274C16.5863 9.29554 17.0057 8.70466 17.5091 8.09601C18.0292 7.48741 18.4486 7.07574 18.4486 7.20101ZM14.489 10.7634C14.3715 10.835 14.2373 10.7992 14.1702 10.6918C14.1031 10.5664 14.1367 10.4053 14.2373 10.3336C14.3548 10.2622 14.489 10.2978 14.5561 10.4234C14.6232 10.5306 14.5897 10.6918 14.489 10.7634ZM16.301 10.0295C16.2004 10.3695 15.848 10.4948 15.6635 10.2978C15.3782 10.0114 15.5125 9.76085 15.9487 9.76085C16.2004 9.76084 16.3514 9.88612 16.301 10.0295ZM16.7708 5.28562C17.1064 5.10672 17.2238 5.1245 17.3245 5.4109C17.4587 5.76894 16.8715 6.6282 16.5024 6.6282C16.3849 6.6282 16.4688 6.41345 16.6869 6.14483C17.0393 5.71537 17.0561 5.67952 16.7205 5.80479C16.2171 6.00177 16.2507 5.59009 16.7708 5.28562ZM17.6601 13.3232C17.3413 13.198 17.1903 12.9474 17.1903 12.5893C17.1903 12.1954 17.1064 12.0523 16.905 12.1418C16.603 12.2671 16.2171 11.8554 16.4185 11.6404C16.4856 11.569 16.8379 11.5867 17.2071 11.6762C17.6433 11.7837 17.7943 11.909 17.6433 12.0523C17.5091 12.2135 17.6097 12.446 17.9621 12.8041C18.5325 13.3591 18.3983 13.6274 17.6601 13.3232Z" fill="#1A71FF"/>
</g>
<defs>
<clipPath id="clip0_1982_4147">
<rect width="19.9996" height="20" fill="white" transform="translate(0.179688 0.987305)"/>
</clipPath>
</defs>
</svg>
