<svg width="70" height="71" viewBox="0 0 70 71" fill="none" xmlns="http://www.w3.org/2000/svg">
<path d="M15.513 43.1379L13.0764 52.2341L4.17068 52.4225C1.50917 47.486 -0.000488281 41.8379 -0.000488281 35.836C-0.000488281 30.0321 1.411 24.559 3.91296 19.7397H3.91488L11.8435 21.1933L15.3167 29.0744C14.5898 31.1937 14.1936 33.4687 14.1936 35.836C14.1938 38.4052 14.6592 40.8668 15.513 43.1379Z" fill="#FBBB00"/>
<path d="M69.3886 29.2981C69.7906 31.4153 70.0002 33.6019 70.0002 35.8366C70.0002 38.3423 69.7367 40.7866 69.2348 43.1443C67.531 51.1674 63.0791 58.1732 56.9118 63.1309L56.9099 63.129L46.9234 62.6194L45.51 53.7963C49.6022 51.3963 52.8004 47.6405 54.485 43.1443H35.7695V29.2981H54.7581H69.3886Z" fill="#518EF8"/>
<path d="M56.9085 63.1283L56.9104 63.1303C50.9124 67.9514 43.2931 70.836 34.9989 70.836C21.67 70.836 10.0815 63.3861 4.16992 52.4225L15.5123 43.1379C18.468 51.0264 26.0777 56.6418 34.9989 56.6418C38.8334 56.6418 42.4259 55.6052 45.5085 53.7956L56.9085 63.1283Z" fill="#28B446"/>
<path d="M57.3383 8.89362L45.9997 18.1763C42.8094 16.1821 39.0381 15.0301 34.9978 15.0301C25.8747 15.0301 18.1227 20.9032 15.315 29.0745L3.91305 19.7398H3.91113C9.73619 8.50903 21.4708 0.835938 34.9978 0.835938C43.4901 0.835938 51.2767 3.86099 57.3383 8.89362Z" fill="#F14336"/>
</svg>
