<svg width="42" height="43" viewBox="0 0 42 43" fill="none" xmlns="http://www.w3.org/2000/svg">
<rect x="0.109375" y="0.931152" width="41.1375" height="41.1375" rx="2" fill="#FC7008" fill-opacity="0.2"/>
<path d="M32.2737 14.9429H9.08229C8.0971 14.9429 7.29834 14.1441 7.29834 13.159C7.29834 12.1738 8.0971 11.375 9.08229 11.375H32.2737C33.2588 11.375 34.0576 12.1738 34.0576 13.159C34.0576 14.1441 33.2588 14.9429 32.2737 14.9429Z" fill="#FC7008"/>
<path d="M32.2737 31.6245H9.08229C8.0971 31.6245 7.29834 30.8258 7.29834 29.8406C7.29834 28.8554 8.0971 28.0566 9.08229 28.0566H32.2737C33.2588 28.0566 34.0576 28.8554 34.0576 29.8406C34.0576 30.8258 33.2588 31.6245 32.2737 31.6245Z" fill="#FC7008"/>
<path d="M32.2737 23.2837H9.08229C8.0971 23.2837 7.29834 22.485 7.29834 21.4998C7.29834 20.5146 8.0971 19.7158 9.08229 19.7158H32.2737C33.2588 19.7158 34.0576 20.5146 34.0576 21.4998C34.0576 22.485 33.2588 23.2837 32.2737 23.2837Z" fill="#FC7008"/>
</svg>
