<svg width="219" height="37" viewBox="0 0 219 37" fill="none" xmlns="http://www.w3.org/2000/svg">
<g id="Group">
<path id="Vector" d="M21.8566 23.4346H21.1261C20.1123 23.4346 19.2773 24.2546 19.2773 25.2684V25.9991C19.2773 27.0129 20.1123 27.8478 21.1261 27.8478H21.8566C22.8704 27.8478 23.6904 27.0129 23.6904 25.9991V25.2684C23.6904 24.2546 22.8704 23.4346 21.8566 23.4346Z" fill="url(#paint0_radial_925_2512)"/>
<path id="Vector_2" d="M37.3025 31.1278C37.6454 30.3227 37.8243 29.4729 37.8243 28.5784V6.49804C37.8243 2.96459 34.9618 0.102051 31.4283 0.102051H6.39599C2.86254 0.102051 0 2.96459 0 6.49804V28.5784C0 32.1118 2.86254 34.9893 6.39599 34.9893H31.4283C32.308 34.9893 33.1727 34.8104 33.9778 34.4526L35.6178 36.0926C36.1247 36.6144 36.7956 36.8976 37.4367 36.8976C37.9436 36.8976 38.3909 36.7186 38.7189 36.3907L39.2407 35.8838C40.016 35.1086 39.8818 33.7071 38.9425 32.7678L37.3025 31.1278ZM33.2621 27.3111L32.144 26.1782C31.7265 25.7607 31.2047 25.5073 30.6829 25.4327C30.1163 25.3582 29.6094 25.5222 29.2516 25.88L28.7298 26.4018C28.372 26.7596 28.208 27.2665 28.2825 27.8331C28.3422 28.3698 28.6105 28.8916 29.028 29.3091L30.1461 30.4273H6.39599C5.38218 30.4273 4.54727 29.5923 4.54727 28.5785V6.49804C4.54727 5.48423 5.38218 4.64932 6.39599 4.64932H31.4283C32.4421 4.64932 33.2621 5.48423 33.2621 6.49804V27.3111Z" fill="url(#paint1_radial_925_2512)"/>
<path id="Vector_3" d="M28.8492 7.24316H9.34814C8.12575 7.24316 7.1416 8.22716 7.1416 9.4348C7.1416 10.6573 8.1256 11.6413 9.34814 11.6413H26.2699V14.5933H12.658C11.6441 14.5933 10.8092 15.4282 10.8092 16.4421V25.641C10.8092 26.8486 11.8081 27.8475 13.0158 27.8475C14.2383 27.8475 15.2223 26.8486 15.2223 25.641V19.0064H28.8492C29.863 19.0064 30.683 18.1864 30.683 17.1726V9.07698C30.683 8.06316 29.863 7.24316 28.8492 7.24316Z" fill="url(#paint2_radial_925_2512)"/>
<path id="Vector_4" d="M62.3213 22.2152C62.5827 21.5382 62.7814 20.8233 62.9102 20.0866C63.034 19.3528 63.0923 18.6154 63.0827 17.8962C63.0696 16.9171 62.9328 15.9386 62.6772 14.9886C62.4217 14.0401 62.033 13.1381 61.5227 12.3081C61.0095 11.471 60.355 10.7263 59.5782 10.0965C58.8 9.46019 57.8668 8.95581 56.806 8.59755C55.7533 8.2372 54.5419 8.05232 53.204 8.04785H53.201C51.8623 8.05218 50.6457 8.24227 49.5866 8.61127C48.5318 8.97311 47.5897 9.4906 46.7861 10.1502C46.0005 10.7989 45.3396 11.561 44.8205 12.4149C44.3079 13.2542 43.9192 14.1744 43.6652 15.1507C43.4162 16.1146 43.2917 17.1111 43.296 18.1143C43.3003 19.1095 43.4293 20.0995 43.6781 21.0575C43.9241 22.0171 44.3086 22.9313 44.8188 23.7699C45.3248 24.6129 45.9807 25.37 46.7691 26.0194C47.5625 26.6702 48.5017 27.1813 49.5602 27.5409C50.6325 27.9078 51.8228 28.0898 53.2023 28.0985C54.2753 28.0985 55.2822 27.9762 56.193 27.7345C57.0003 27.5219 57.7472 27.2162 58.4192 26.8202L60.7255 29.0987L63.7153 26.1096L61.4688 23.8892C61.8029 23.3669 62.089 22.8063 62.3213 22.2152ZM58.7279 19.628C58.5926 20.225 58.3706 20.8015 58.0669 21.346C57.7785 21.873 57.3972 22.355 56.9333 22.7773C56.4828 23.1864 55.9396 23.5154 55.3202 23.7556C54.6977 23.9944 53.9851 24.1182 53.2047 24.1225C52.4433 24.1182 51.7539 24.0046 51.1562 23.7847C50.552 23.5604 50.0358 23.262 49.5787 22.8703C49.1274 22.4859 48.743 22.036 48.4373 21.5352C48.1307 21.0299 47.9022 20.5001 47.7398 19.9147C47.5782 19.3367 47.4923 18.7551 47.4843 18.185C47.4719 17.5873 47.5323 16.9984 47.6691 16.3855C47.8053 15.7842 48.0171 15.2135 48.2996 14.69C48.5886 14.1622 48.9613 13.6869 49.4075 13.2763C49.853 12.8687 50.3939 12.5425 51.0179 12.3089C51.6403 12.0715 52.3755 11.9493 53.2025 11.9449C54.028 11.9493 54.7583 12.0621 55.3712 12.2798C55.9863 12.5025 56.5156 12.8061 56.9429 13.181C57.3709 13.5568 57.7305 13.9993 58.0108 14.4944C58.2919 14.9989 58.5058 15.5361 58.6456 16.0901C58.7927 16.6732 58.8742 17.236 58.8946 17.8118C58.9209 18.421 58.8641 19.0318 58.7279 19.628Z" fill="url(#paint3_radial_925_2512)"/>
<path id="Vector_5" d="M117.074 17.849C116.562 17.3925 115.971 17.0198 115.318 16.7432C114.681 16.4688 113.972 16.246 113.211 16.0808C112.484 15.9265 111.713 15.7998 110.916 15.7045C110.324 15.6339 109.816 15.5553 109.367 15.4628C108.893 15.3609 108.475 15.2313 108.127 15.0777C107.796 14.927 107.546 14.7436 107.363 14.5164C107.199 14.3126 107.117 14.0586 107.114 13.744C107.114 13.3546 107.226 13.0203 107.458 12.7182C107.694 12.4051 108.066 12.1497 108.564 11.9604C109.088 11.7609 109.767 11.6583 110.579 11.6539C111.209 11.6582 111.807 11.7521 112.358 11.9349C112.909 12.1177 113.388 12.3549 113.784 12.6425C114.175 12.9256 114.47 13.2278 114.659 13.5402L114.839 13.8364L118.257 12.0798L118.092 11.7508C117.718 10.9973 117.243 10.3604 116.684 9.85733C116.137 9.35937 115.509 8.95682 114.82 8.66132C114.15 8.37164 113.434 8.16261 112.695 8.04036C111.967 7.91885 111.208 7.87517 110.474 7.86279C109.751 7.86712 109.035 7.94002 108.348 8.07689C107.639 8.2145 106.957 8.42785 106.321 8.71172C105.673 8.99827 105.091 9.371 104.59 9.8208C104.079 10.2787 103.672 10.8284 103.38 11.4544C103.083 12.0913 102.93 12.8251 102.926 13.6398C102.93 14.5105 103.073 15.2784 103.35 15.9234C103.634 16.5742 104.03 17.1246 104.526 17.5585C105.019 17.9946 105.596 18.3519 106.237 18.6198C106.873 18.8906 107.564 19.1062 108.292 19.2597C109.007 19.4097 109.763 19.532 110.542 19.6237C111.137 19.6863 111.695 19.781 112.197 19.9047C112.689 20.0299 113.116 20.1916 113.471 20.3881C113.802 20.5671 114.055 20.7885 114.24 21.0621C114.411 21.3154 114.495 21.6169 114.499 21.9765C114.495 22.4088 114.398 22.7641 114.203 23.0598C114 23.3655 113.733 23.6072 113.386 23.7979C113.016 24.0017 112.592 24.1517 112.128 24.2449C111.176 24.4356 110.047 24.4414 109.036 24.2245C108.531 24.1153 108.059 23.9479 107.632 23.7237C107.211 23.5052 106.831 23.2229 106.504 22.885C106.183 22.5472 105.924 22.1411 105.736 21.6795L105.582 21.3024L102.003 23.1573L102.133 23.4732C102.613 24.6379 103.274 25.5886 104.099 26.3022C104.919 27.0025 105.89 27.5121 106.986 27.8178C108.039 28.1105 109.221 28.259 110.498 28.259C110.518 28.259 110.536 28.259 110.555 28.259C111.409 28.259 112.239 28.1833 113.021 28.0363C113.811 27.8863 114.556 27.6504 115.237 27.336C115.923 27.0157 116.531 26.6051 117.05 26.1115C117.571 25.6135 117.981 25.0137 118.27 24.3279C118.559 23.6436 118.709 22.8545 118.714 21.978C118.71 21.0563 118.562 20.2454 118.279 19.5654C117.993 18.8907 117.588 18.3135 117.074 17.849Z" fill="url(#paint4_radial_925_2512)"/>
<path id="Vector_6" d="M78.7263 19.517C78.7263 20.5158 78.5581 21.3836 78.2255 22.0984C77.9139 22.7812 77.4459 23.3185 76.8366 23.6913C76.2207 24.061 75.4578 24.2504 74.5704 24.2547C73.6684 24.2547 72.8793 24.0741 72.2242 23.7174C71.5784 23.3664 71.0681 22.8394 70.7085 22.1522C70.3416 21.4431 70.1537 20.5565 70.1494 19.5169V8.52441H65.9351V19.5184C65.9394 20.6729 66.0894 21.7212 66.3805 22.6341C66.6725 23.5571 67.0939 24.3798 67.632 25.0757C68.157 25.7615 68.7931 26.3467 69.5247 26.8141C70.2411 27.2699 71.0346 27.6149 71.8841 27.8406C72.7358 28.0648 73.6305 28.1785 74.5442 28.1785C75.7512 28.1785 76.878 27.9936 77.8914 27.631C78.9142 27.2656 79.8133 26.7123 80.5624 25.9858C81.3114 25.2651 81.9025 24.3464 82.3212 23.2558C82.7274 22.1841 82.9363 20.9262 82.9406 19.5169V8.52441H78.7263V19.517Z" fill="url(#paint5_radial_925_2512)"/>
<path id="Vector_7" d="M85.1604 27.7813H99.7834V23.594H89.3755V20.155H99.4121V16.1518H89.3755V12.6066H99.7834V8.47168H85.1604V27.7813Z" fill="url(#paint6_radial_925_2512)"/>
<path id="Vector_8" d="M196.942 12.4304C196.42 11.5903 195.762 10.8478 194.988 10.2224C194.204 9.59264 193.284 9.09483 192.251 8.74237C191.214 8.39142 190.039 8.21102 188.756 8.20654H188.753C187.475 8.21087 186.3 8.38992 185.262 8.7379C184.221 9.09319 183.302 9.58817 182.531 10.2091C181.75 10.8389 181.093 11.5791 180.583 12.4084C180.069 13.2339 179.677 14.1439 179.418 15.1136C179.163 16.076 179.033 17.085 179.033 18.1129C179.033 19.1328 179.165 20.1359 179.422 21.0911C179.68 22.0593 180.071 22.9737 180.585 23.8093C181.11 24.6568 181.766 25.4065 182.538 26.0414C183.314 26.6777 184.233 27.1843 185.269 27.5497C186.3 27.9093 187.474 28.0942 188.756 28.0987C190.033 28.0944 191.204 27.9108 192.236 27.5542C193.266 27.1974 194.184 26.6908 194.963 26.0502C195.735 25.4212 196.39 24.6742 196.911 23.8313C197.425 22.9999 197.818 22.0914 198.079 21.129C198.338 20.1754 198.472 19.1787 198.476 18.1676C198.481 17.1252 198.354 16.111 198.102 15.1545C197.844 14.1754 197.454 13.2589 196.942 12.4304ZM196.049 20.5104C195.838 21.2849 195.529 22.0071 195.127 22.6609C194.717 23.3336 194.22 23.9071 193.609 24.4124C193.013 24.9104 192.303 25.3064 191.495 25.5932C190.682 25.8786 189.759 26.0256 188.756 26.03C187.753 26.0257 186.837 25.8786 186.032 25.5932C185.231 25.3078 184.524 24.9119 183.928 24.4139C183.327 23.9101 182.819 23.3205 182.417 22.6609C182.018 22.0043 181.709 21.2806 181.5 20.5119C181.293 19.7402 181.186 18.9424 181.182 18.1379C181.178 17.2942 181.277 16.4738 181.475 15.6992C181.671 14.932 181.976 14.2068 182.382 13.5444C182.779 12.8922 183.285 12.3177 183.886 11.8351C184.486 11.348 185.198 10.9637 186 10.6937C186.81 10.4214 187.736 10.2808 188.755 10.2765C189.78 10.2808 190.706 10.4235 191.507 10.7017C192.31 10.9777 193.024 11.3664 193.625 11.8563C194.234 12.3542 194.742 12.9344 195.138 13.5808C195.539 14.2389 195.845 14.9626 196.048 15.732C196.25 16.503 196.353 17.3132 196.353 18.1402C196.353 18.9438 196.25 19.7415 196.049 20.5104Z" fill="url(#paint7_radial_925_2512)"/>
<path id="Vector_9" d="M216.676 8.47168L209.859 18.9808L202.964 8.47168H200.696V27.7813H202.871V12.1588L209.447 22.1584H210.328L216.851 12.1669V27.7813H219V8.47168H216.676Z" fill="url(#paint8_radial_925_2512)"/>
<path id="Vector_10" d="M120.934 12.3947H126.813V27.7813H131.054V12.3947H136.933V8.47168H120.934V12.3947Z" fill="url(#paint9_radial_925_2512)"/>
<path id="Vector_11" d="M150.553 20.1944C151.349 19.877 152.028 19.43 152.569 18.8636C153.108 18.2929 153.499 17.6573 153.766 16.9214C154.026 16.2022 154.154 15.4305 154.146 14.6282C154.141 14.0226 154.05 13.4118 153.874 12.8111C153.697 12.22 153.432 11.6566 153.086 11.1353C152.736 10.6134 152.298 10.1475 151.783 9.74849C151.259 9.34878 150.65 9.0336 149.975 8.81161C149.298 8.5911 148.527 8.476 147.681 8.47168H139.152V27.7815H141.328V20.7638H145.848L152.257 27.7815H155.152L148.577 20.6458C149.306 20.5802 149.969 20.4289 150.553 20.1944ZM141.328 18.6678V10.5414H147.68C148.393 10.5457 149.018 10.6636 149.536 10.8923C150.066 11.1304 150.488 11.4317 150.828 11.8147C151.171 12.2042 151.429 12.6417 151.595 13.1178C151.764 13.5968 151.845 14.0948 151.837 14.6021C151.832 15.408 151.675 16.1294 151.371 16.7438C151.062 17.3502 150.612 17.806 149.988 18.1393C149.353 18.4858 148.523 18.6635 147.523 18.6678H141.328Z" fill="url(#paint10_radial_925_2512)"/>
<path id="Vector_12" d="M175.279 12.4304C174.754 11.5867 174.096 10.8441 173.325 10.2231C172.544 9.59339 171.624 9.09557 170.589 8.74237C169.552 8.39142 168.377 8.21102 167.095 8.20654H167.092C165.813 8.21087 164.638 8.38992 163.602 8.7379C162.561 9.09244 161.642 9.58742 160.87 10.2091C160.091 10.8352 159.435 11.5755 158.918 12.4084C158.407 13.2339 158.015 14.1439 157.753 15.1142C157.5 16.0781 157.372 17.087 157.372 18.1127C157.372 19.1312 157.501 20.1329 157.759 21.0923C158.02 22.059 158.41 22.9719 158.922 23.8092C159.449 24.6566 160.106 25.4079 160.876 26.0412C161.654 26.6775 162.572 27.1856 163.607 27.5496C164.638 27.9092 165.812 28.0941 167.095 28.0985C168.371 28.0942 169.542 27.9107 170.574 27.554C171.605 27.1973 172.522 26.6907 173.3 26.05C174.072 25.421 174.727 24.6741 175.249 23.8311C175.763 22.9998 176.156 22.0912 176.417 21.1288C176.675 20.1781 176.809 19.1822 176.813 18.1674C176.817 17.1213 176.692 16.1073 176.44 15.1543C176.183 14.1799 175.792 13.2633 175.279 12.4304ZM174.386 20.5104C174.176 21.2849 173.868 22.0071 173.464 22.6609C173.054 23.3349 172.557 23.9086 171.947 24.4124C171.35 24.9104 170.638 25.3078 169.833 25.5932C169.021 25.8786 168.097 26.0256 167.094 26.03C166.09 26.0257 165.174 25.8786 164.37 25.5932C163.571 25.3093 162.862 24.9119 162.265 24.4139C161.665 23.9101 161.157 23.319 160.755 22.6609C160.356 22.0043 160.048 21.2806 159.838 20.5119C159.631 19.7402 159.525 18.9424 159.521 18.1379C159.516 17.2892 159.615 16.4687 159.813 15.6992C160.01 14.932 160.314 14.2069 160.72 13.5444C161.118 12.8922 161.623 12.3177 162.224 11.8351C162.824 11.348 163.536 10.9637 164.338 10.6937C165.148 10.4214 166.074 10.2808 167.093 10.2765C168.118 10.2808 169.044 10.4235 169.845 10.7017C170.649 10.9777 171.362 11.3664 171.963 11.8563C172.569 12.352 173.077 12.9323 173.475 13.5816C173.878 14.2389 174.184 14.9626 174.386 15.7328C174.588 16.5015 174.692 17.3118 174.692 18.1402C174.692 18.9453 174.588 19.743 174.386 20.5104Z" fill="url(#paint11_radial_925_2512)"/>
</g>
<defs>
<radialGradient id="paint0_radial_925_2512" cx="0" cy="0" r="1" gradientUnits="userSpaceOnUse" gradientTransform="translate(111.585 24.4309) scale(108.912 108.912)">
<stop stop-color="#F37F09"/>
<stop offset="0.6099" stop-color="#E7660F"/>
<stop offset="1" stop-color="#D60200"/>
</radialGradient>
<radialGradient id="paint1_radial_925_2512" cx="0" cy="0" r="1" gradientUnits="userSpaceOnUse" gradientTransform="translate(111.585 24.4311) scale(108.912 108.912)">
<stop stop-color="#F37F09"/>
<stop offset="0.6099" stop-color="#E7660F"/>
<stop offset="1" stop-color="#D60200"/>
</radialGradient>
<radialGradient id="paint2_radial_925_2512" cx="0" cy="0" r="1" gradientUnits="userSpaceOnUse" gradientTransform="translate(111.585 24.4308) scale(108.912 108.912)">
<stop stop-color="#F37F09"/>
<stop offset="0.6099" stop-color="#E7660F"/>
<stop offset="1" stop-color="#D60200"/>
</radialGradient>
<radialGradient id="paint3_radial_925_2512" cx="0" cy="0" r="1" gradientUnits="userSpaceOnUse" gradientTransform="translate(111.585 24.4308) scale(108.912 108.912)">
<stop stop-color="#F37F09"/>
<stop offset="0.6099" stop-color="#E7660F"/>
<stop offset="1" stop-color="#D60200"/>
</radialGradient>
<radialGradient id="paint4_radial_925_2512" cx="0" cy="0" r="1" gradientUnits="userSpaceOnUse" gradientTransform="translate(111.585 24.4311) scale(108.912 108.912)">
<stop stop-color="#F37F09"/>
<stop offset="0.6099" stop-color="#E7660F"/>
<stop offset="1" stop-color="#D60200"/>
</radialGradient>
<radialGradient id="paint5_radial_925_2512" cx="0" cy="0" r="1" gradientUnits="userSpaceOnUse" gradientTransform="translate(111.585 24.4306) scale(108.912 108.912)">
<stop stop-color="#F37F09"/>
<stop offset="0.6099" stop-color="#E7660F"/>
<stop offset="1" stop-color="#D60200"/>
</radialGradient>
<radialGradient id="paint6_radial_925_2512" cx="0" cy="0" r="1" gradientUnits="userSpaceOnUse" gradientTransform="translate(111.585 24.4308) scale(108.912 108.912)">
<stop stop-color="#F37F09"/>
<stop offset="0.6099" stop-color="#E7660F"/>
<stop offset="1" stop-color="#D60200"/>
</radialGradient>
<radialGradient id="paint7_radial_925_2512" cx="0" cy="0" r="1" gradientUnits="userSpaceOnUse" gradientTransform="translate(111.585 24.4309) scale(108.912 108.912)">
<stop stop-color="#F37F09"/>
<stop offset="0.6099" stop-color="#E7660F"/>
<stop offset="1" stop-color="#D60200"/>
</radialGradient>
<radialGradient id="paint8_radial_925_2512" cx="0" cy="0" r="1" gradientUnits="userSpaceOnUse" gradientTransform="translate(111.585 24.4308) scale(108.912 108.912)">
<stop stop-color="#F37F09"/>
<stop offset="0.6099" stop-color="#E7660F"/>
<stop offset="1" stop-color="#D60200"/>
</radialGradient>
<radialGradient id="paint9_radial_925_2512" cx="0" cy="0" r="1" gradientUnits="userSpaceOnUse" gradientTransform="translate(111.585 24.4308) scale(108.912 108.912)">
<stop stop-color="#F37F09"/>
<stop offset="0.6099" stop-color="#E7660F"/>
<stop offset="1" stop-color="#D60200"/>
</radialGradient>
<radialGradient id="paint10_radial_925_2512" cx="0" cy="0" r="1" gradientUnits="userSpaceOnUse" gradientTransform="translate(111.585 24.4309) scale(108.912 108.912)">
<stop stop-color="#F37F09"/>
<stop offset="0.6099" stop-color="#E7660F"/>
<stop offset="1" stop-color="#D60200"/>
</radialGradient>
<radialGradient id="paint11_radial_925_2512" cx="0" cy="0" r="1" gradientUnits="userSpaceOnUse" gradientTransform="translate(111.585 24.4309) scale(108.912 108.912)">
<stop stop-color="#F37F09"/>
<stop offset="0.6099" stop-color="#E7660F"/>
<stop offset="1" stop-color="#D60200"/>
</radialGradient>
</defs>
</svg>
