<svg width="88" height="14" viewBox="0 0 88 14" fill="none" xmlns="http://www.w3.org/2000/svg">
<path d="M12.7724 5.28211L8.74509 4.66601L6.93995 0.815271C6.80513 0.527722 6.33405 0.527722 6.19923 0.815271L4.39463 4.66601L0.367322 5.28211C0.0365342 5.33295 -0.0955626 5.73584 0.136425 5.97364L3.0622 8.97705L2.37061 13.223C2.31548 13.5603 2.67519 13.8134 2.97268 13.6478L6.56986 11.6568L10.167 13.6483C10.4618 13.8123 10.8248 13.5642 10.7691 13.2236L10.0775 8.97759L13.0033 5.97419C13.2353 5.73584 13.1026 5.33295 12.7724 5.28211Z" fill="#FFC107"/>
<path d="M31.4868 5.28211L27.4594 4.66601L25.6543 0.815271C25.5195 0.527722 25.0484 0.527722 24.9136 0.815271L23.109 4.66601L19.0817 5.28211C18.7509 5.33295 18.6188 5.73584 18.8508 5.97364L21.7766 8.97705L21.085 13.223C21.0298 13.5603 21.3895 13.8134 21.687 13.6478L25.2842 11.6568L28.8814 13.6483C29.1762 13.8123 29.5392 13.5642 29.4835 13.2236L28.7919 8.97759L31.7177 5.97419C31.9496 5.73584 31.817 5.33295 31.4868 5.28211Z" fill="#FFC107"/>
<path d="M50.2277 5.28211L46.488 4.66601L44.8118 0.815271C44.6867 0.527722 44.2492 0.527722 44.124 0.815271L42.4483 4.66601L38.7087 5.28211C38.4015 5.33295 38.2789 5.73584 38.4943 5.97364L41.2111 8.97705L40.5689 13.223C40.5177 13.5603 40.8517 13.8134 41.128 13.6478L44.4682 11.6568L47.8084 13.6483C48.0821 13.8123 48.4192 13.5642 48.3675 13.2236L47.7253 8.97759L50.4421 5.97419C50.6575 5.73584 50.5343 5.33295 50.2277 5.28211Z" fill="#FFC107"/>
<path d="M68.9169 5.28211L64.8896 4.66601L63.0845 0.815271C62.9497 0.527722 62.4786 0.527722 62.3438 0.815271L60.5392 4.66601L56.5119 5.28211C56.1811 5.33295 56.049 5.73584 56.281 5.97364L59.2067 8.97705L58.5151 13.223C58.46 13.5603 58.8197 13.8134 59.1172 13.6478L62.7144 11.6568L66.3116 13.6483C66.6063 13.8123 66.9693 13.5642 66.9136 13.2236L66.2221 8.97759L69.1478 5.97419C69.3798 5.73584 69.2472 5.33295 68.9169 5.28211Z" fill="#FFC107"/>
<path d="M87.6579 5.28211L83.9182 4.66601L82.242 0.815271C82.1168 0.527722 81.6794 0.527722 81.5542 0.815271L79.8785 4.66601L76.1389 5.28211C75.8317 5.33295 75.709 5.73584 75.9245 5.97364L78.6413 8.97705L77.9991 13.223C77.9479 13.5603 78.2819 13.8134 78.5581 13.6478L81.8984 11.6568L85.2386 13.6483C85.5123 13.8123 85.8494 13.5642 85.7977 13.2236L85.1555 8.97759L87.8723 5.97419C88.0877 5.73584 87.9645 5.33295 87.6579 5.28211Z" fill="#FFC107"/>
</svg>
