<svg width="429" height="226" viewBox="0 0 429 226" fill="none" xmlns="http://www.w3.org/2000/svg">
<path d="M309.463 203.604C309.425 203.608 309.384 203.613 309.344 203.618C309.247 203.635 309.155 203.655 309.056 203.672C309.219 203.644 309.348 203.623 309.463 203.604Z" fill="url(#paint0_linear_2989_103151)"/>
<path d="M230.126 189.979C228.485 189.278 230.481 190.453 230.126 189.979V189.979Z" fill="url(#paint1_linear_2989_103151)"/>
<path d="M148.66 175.25C149.178 175.186 149.427 175.124 148.66 175.25V175.25Z" fill="url(#paint2_linear_2989_103151)"/>
<path d="M309.463 203.604C309.98 203.539 310.229 203.477 309.463 203.604V203.604Z" fill="url(#paint3_linear_2989_103151)"/>
<path d="M390.575 217.841C390.47 217.775 390.368 217.725 390.262 217.652C391.867 218.749 391.342 218.382 390.575 217.841Z" fill="url(#paint4_linear_2989_103151)"/>
<path d="M287.072 47.3247C287.024 47.3193 286.8 47.3402 286.293 47.3977C286.556 47.3679 286.815 47.3443 287.072 47.3247Z" fill="url(#paint5_linear_2989_103151)"/>
<path d="M411.117 168.278C411.306 167.209 411.342 166.041 411.226 164.903C411.36 164.07 411.381 163.201 411.284 162.316C411.295 162.296 411.304 162.276 411.314 162.256C411.572 163.675 411.585 163.073 411.438 162.009C412.274 160.23 412.602 158.217 412.279 156.301C412.637 155.278 412.826 154.17 412.772 153.203C412.698 151.873 412.396 150.646 411.909 149.603C411.903 149.454 411.887 149.311 411.874 149.166C412.189 147.005 412.008 145.079 411.207 143.607C411.186 142.577 411.158 140.915 411.242 141.315C411.197 140.975 411.146 140.644 411.088 140.323C411.237 139.861 411.357 139.412 411.42 139.027C411.525 138.387 411.537 137.758 411.506 137.137C412.181 135.874 412.663 134.419 412.943 132.846C413.025 132.383 413.061 131.9 413.063 131.416C413.44 130.561 413.76 129.578 413.886 128.842C413.889 128.826 413.89 128.791 413.891 128.74C414.506 127.313 414.705 125.726 414.553 124.206C414.986 123.08 415.239 121.925 415.709 119.926C415.969 118.821 415.908 117.702 415.645 116.689C415.702 116.19 415.737 115.694 415.747 115.201C416.069 114.707 416.348 114.165 416.582 113.593C416.748 113.534 416.914 113.471 417.08 113.389C419.997 111.953 420.657 108.783 421.377 105.314C422.258 101.076 422.996 96.7933 423.771 92.528C424.146 91.7932 424.428 90.9775 424.587 90.1384C425.384 85.9345 423.552 82.7305 420.937 81.1097C420.472 80.8211 419.986 80.518 419.458 80.392C419.352 80.3337 419.208 80.2556 419.05 80.1705C418.187 79.1156 417.026 78.6434 415.84 78.7215C415.222 78.5654 414.585 78.3885 414.039 78.3492C413.972 77.2266 413.854 76.2562 413.785 75.9829C412.806 72.1321 409.584 70.363 406.484 70.8497C406.333 70.8254 406.183 70.7838 406.032 70.7842C405.933 70.7845 405.841 70.8091 405.744 70.816C403.78 70.2864 401.875 70.3152 400.101 72.0895C400.008 72.1584 399.917 72.2312 399.825 72.3045C399.014 71.9396 398.101 71.8905 397.081 72.2677C396.649 72.176 396.205 72.1415 395.757 72.1755C394.625 71.4295 393.247 71.3877 391.692 71.6911C390.67 71.8906 389.713 72.3326 388.859 72.943C388.435 72.9425 387.988 72.9931 387.497 73.1284C387.445 73.1425 387.245 74.0028 387.193 74.0187C386.779 74.0679 386.42 73.9348 385.83 75.1981C384.343 74.9358 382.856 74.6736 381.369 74.4114C381.328 73.037 381.06 72.8778 380.806 72.5775C379.73 71.2997 378.512 69.895 377.069 69.4553C377.011 69.4375 376.972 69.2097 376.884 69.1911C376.3 68.4003 375.721 67.5548 374.947 66.8465C373.167 65.2185 371.235 65.1324 369.215 66.7906C368.146 67.6669 367.495 68.6385 367.028 69.7977C366.973 69.8519 366.923 69.896 366.87 69.9521C366.873 66.8491 365.735 63.9706 363.854 62.573C362.639 60.9378 360.817 60.6159 359.008 61.2184C357.786 60.8003 356.506 60.779 355.272 61.3875C354.626 60.907 353.894 60.5425 353.094 60.3242C351.838 58.9296 350.297 58.5427 348.453 59.3553C347.632 59.7171 346.907 60.3 346.27 61.0175C345.208 58.4383 343.253 56.8117 340.689 57.0893C339.405 56.6547 338.132 56.512 336.798 56.8248C336.084 56.5554 335.362 56.363 334.652 56.2986C334.25 56.0389 333.817 55.8564 333.347 55.7713C333.002 55.6781 332.67 55.6488 332.342 55.6488C331.39 55.2865 330.478 55.0999 329.518 55.1745C328.654 54.9253 327.802 55.0742 327.027 55.5141C326.75 55.6133 326.48 55.7421 326.218 55.8965C325.276 53.9792 323.581 53.0385 321.78 53.107C321.627 53.1002 321.426 53.0947 321.157 53.0908C319.951 53.0736 319.235 53.2541 318.135 53.9433C317.401 54.4033 316.473 55.2563 315.734 56.09C314.85 55.9539 313.996 56.1488 313.149 56.6172C312.727 56.7145 312.315 56.8625 311.916 57.07C310.711 55.022 309.231 53.4276 307.897 52.8136C306.096 51.9852 304.389 52.4091 302.869 53.9899C302.067 51.2725 300.295 49.3241 298.064 48.5804C297.8 48.4921 297.519 48.4759 297.234 48.4897C296.698 48.2736 296.122 48.2024 295.531 48.3027C295.179 48.2334 294.823 48.195 294.463 48.2216C292.927 46.8687 290.832 46.567 288.906 47.3367C288.326 47.2663 287.708 47.2756 287.071 47.3241C287.169 47.3353 286.48 47.4636 285.717 47.6487C285.619 47.622 285.518 47.6009 285.418 47.5781C283.573 45.9318 281.276 45.4127 279.238 46.6021C277.588 45.5538 275.281 45.8823 273.347 47.3394C272.626 47.3313 271.924 47.4612 271.26 47.7387C269.254 47.3706 267.429 47.7229 265.984 49.3061C265.243 49.2291 264.469 49.3271 263.723 49.6363C266.226 48.5985 263.335 49.3143 263.146 49.3483C262.136 49.5301 261.476 49.8704 260.768 50.3348C260.136 49.9479 259.439 49.6516 258.903 49.5767C258.115 49.4664 257.336 49.6528 256.619 49.9638C255.401 48.5806 253.721 47.8305 252.013 47.8216C251.803 46.7512 251.425 45.7616 250.83 44.8851C249.442 42.8397 246.973 41.9916 244.668 42.3155C244.497 42.2843 244.327 42.2405 244.154 42.2411C244.056 42.2416 243.964 42.2662 243.868 42.2729C241.903 41.7429 239.998 41.7719 238.223 43.5465C238.099 43.639 237.977 43.7378 237.855 43.838C237.142 43.5634 236.404 43.4619 235.601 43.639C234.773 43.3158 233.921 43.3069 233.1 43.5484C232.24 43.1552 231.281 42.9798 230.303 43.0491C229.765 42.5259 229.155 42.1266 228.509 41.8947C226.658 41.2297 224.849 41.9152 223.312 43.3216C222.783 43.1164 222.193 43.0208 221.54 43.049C221.179 43.0646 220.851 43.1468 220.532 43.252C220.521 43.2463 220.51 43.2411 220.5 43.2356C220.121 42.8785 219.71 42.5604 219.283 42.2601C218.822 41.9358 218.312 41.7901 217.787 41.7624C217.179 41.27 216.527 40.8687 215.835 40.6032C215.652 40.5331 215.359 40.4653 215.018 40.4039C214.442 39.6263 213.851 38.8964 213.088 38.1984C212.062 37.2597 210.981 36.8695 209.863 37.0095C209.016 34.7449 207.641 33.0861 205.663 32.9473C205.618 32.9318 205.574 32.9186 205.529 32.9049C205.013 32.4149 204.378 32.0393 203.605 31.8238C202.237 31.4426 200.947 31.754 199.781 32.5085C198.944 32.2964 198.035 32.3684 197.128 32.671C195.908 32.2538 194.629 32.2344 193.395 32.8423C192.749 32.3616 192.017 31.9981 191.217 31.7796C189.96 30.3854 188.419 29.9991 186.576 30.8116C185.755 31.1735 185.029 31.7565 184.393 32.474C183.331 29.8948 181.375 28.2681 178.812 28.5457C177.528 28.1111 176.255 27.9686 174.921 28.2816C174.206 28.0121 173.485 27.8196 172.775 27.7554C172.372 27.4957 171.94 27.3131 171.47 27.2281C171.124 27.1349 170.793 27.1055 170.465 27.1055C169.513 26.7432 168.601 26.5565 167.641 26.6313C166.776 26.3823 165.925 26.5311 165.149 26.9709C164.872 27.0701 164.603 27.199 164.341 27.3533C163.399 25.4358 161.704 24.4953 159.902 24.5639C159.749 24.5571 159.549 24.5515 159.279 24.5476C158.073 24.5304 157.358 24.7109 156.258 25.4001C155.524 25.8602 154.595 26.7131 153.856 27.5468C152.973 27.4107 152.118 27.6056 151.272 28.0741C150.85 28.1714 150.437 28.3192 150.039 28.5269C148.833 26.4789 147.353 24.8844 146.019 24.2705C144.219 23.4422 142.512 23.866 140.992 25.4466C140.19 22.7293 138.417 20.7808 136.187 20.0371C135.922 19.9488 135.641 19.9326 135.356 19.9464C134.82 19.7302 134.243 19.659 133.652 19.7594C133.301 19.6902 132.945 19.6518 132.585 19.6784C131.049 18.3255 128.954 18.0236 127.028 18.7935C126.448 18.7231 125.83 18.7324 125.193 18.7807C125.291 18.7918 124.603 18.9202 123.839 19.1053C123.742 19.0786 123.641 19.0575 123.541 19.0346C121.695 17.3884 119.398 16.8695 117.361 18.0588C115.711 17.0109 113.405 17.3393 111.471 18.7961C110.75 18.788 110.048 18.9178 109.383 19.1955C107.377 18.8275 105.552 19.1797 104.107 20.763C103.366 20.6858 102.592 20.7836 101.845 21.0934C104.348 20.0549 101.458 20.771 101.269 20.8052C100.259 20.987 99.5994 21.3272 98.8908 21.7917C98.2592 21.4047 97.5616 21.1084 97.0258 21.0335C96.2701 20.9278 95.5244 21.099 94.8317 21.3867C93.0348 19.4494 90.2616 18.8127 87.8869 19.7761C87.1194 19.1529 86.221 18.7317 85.275 18.4939C85.0919 18.3768 84.9005 18.2878 84.7055 18.2135C83.2536 17.2314 81.4606 16.7712 79.8343 17.1818C77.6513 15.8119 74.971 14.8774 72.662 16.2274C71.9777 16.0935 71.2749 16.0371 70.509 16.1238C70.3435 16.1425 69.9231 16.2 69.4236 16.2826C67.7486 13.6193 64.5176 12.6131 61.6933 14.6853C61.3331 14.5816 60.9747 14.5775 60.6199 14.6346C60.3846 14.6163 60.1439 14.6093 59.8932 14.6254C59.5074 14.6502 59.1536 14.7097 58.8128 14.7857C58.7598 14.7557 58.7018 14.7306 58.6475 14.7019C58.2556 14.3435 57.8236 14.0447 57.3657 13.8085C56.345 13.2819 55.0875 13.167 53.9467 13.6712C53.2039 13.2328 52.3295 13.0479 51.4258 12.8926C50.7115 11.4359 49.6556 10.4022 48.437 9.91761C47.6689 6.95165 46.1677 4.57162 43.7862 4.40449C43.7773 4.40123 43.7684 4.39886 43.7595 4.39591C43.0912 3.70281 42.2049 3.24184 41.0675 3.13845C38.0402 2.8633 35.451 5.56431 33.9468 9.03397C33.4355 9.81782 33.0616 10.7179 32.8281 11.709C32.5778 12.16 32.336 12.6294 32.1066 13.1504C32.014 13.4481 31.9356 13.7054 31.8712 13.9228C31.8178 13.9899 31.7759 14.0421 31.7171 14.1165C31.3478 14.8227 30.9848 15.5343 30.6282 16.2509C30.3343 16.9549 30.1085 17.7364 29.9057 18.5336C27.7634 19.1195 26.2132 20.8703 25.1335 23.7556C24.6851 24.9539 24.4496 26.4609 24.5715 27.818C23.0773 29.1731 22.0706 31.2375 21.7828 34.3607C21.5486 36.9017 21.9236 38.7294 23.0923 40.2988C23.2391 41.7936 23.6905 42.9784 24.3657 43.8498C24.1716 44.2737 23.9916 44.7216 23.8393 45.2136C23.3237 46.8792 23.2522 48.5934 23.5509 50.1078C23.3975 51.1044 23.34 52.1617 23.3769 53.1648C23.1969 53.9697 23.1109 54.779 23.1611 55.6183C22.5939 57.9373 22.4285 60.4348 22.9969 62.3081C22.7599 62.6315 22.534 62.9825 22.3364 63.3948C21.6814 64.7624 21.4811 65.847 21.3864 67.4278C21.3767 67.5899 21.3968 67.871 21.4294 68.1802C21.2781 69.4048 21.3853 70.5721 21.7402 71.7251C21.6446 72.4077 21.5923 73.1035 21.5663 73.8193C21.4511 74.1039 21.3327 74.4028 21.2052 74.7299C21.0224 75.1336 20.8787 75.5605 20.7828 76.0153C20.6594 76.6594 20.5848 77.2901 20.5441 77.9087C20.4222 78.2644 20.3244 78.6319 20.2435 79.0075C19.2558 79.3599 18.3289 80.0101 17.5387 80.8864C14.7334 82.4742 13.8366 87.6518 14.7034 91.5415C14.2206 93.3978 14.1115 95.394 14.3922 97.1801C13.7501 98.6702 13.3529 100.364 13.2153 101.976C12.9821 102.38 12.7829 102.803 12.6223 103.249C12.5883 103.318 12.5598 103.375 12.52 103.458C10.7042 108.15 11.4496 110.947 13.3162 112.691C12.8381 114.102 12.5795 115.682 12.5218 117.327C12.3101 117.943 12.1465 118.561 12.0408 119.174C11.228 120.493 10.6307 122.01 10.3828 123.573C9.59938 125.502 9.57558 127.401 10.1026 129.029C10.0963 129.053 10.09 129.078 10.0837 129.102C9.95963 129.347 9.84224 129.597 9.75245 129.858C9.67281 130.09 9.59317 130.321 9.51351 130.553C8.7546 132.763 8.84773 135.134 9.65919 136.853C9.66819 136.911 9.67508 136.968 9.68513 137.026C9.49156 140.432 11.3713 142.79 13.753 143.521C14.0303 144.599 14.4766 145.594 15.0866 146.442C16.4519 149.292 19.1626 149.69 22.2636 149.525C23.1195 149.48 23.4425 149.357 23.1179 149.37C23.7711 149.298 24.3393 149.245 25.0814 148.831C25.8219 148.418 26.5844 147.774 27.2672 146.995C28.3791 147.488 29.4167 147.761 30.4263 147.742C30.5149 147.96 30.601 148.177 30.7046 148.402C31.5568 150.253 33.2284 151.035 34.892 150.799C34.9713 150.788 35.2375 150.781 35.5564 150.674C37.7523 151.05 39.7721 149.54 41.2137 147.06C42.0708 147.211 42.9279 147.362 43.785 147.513C44.096 147.568 44.355 147.834 44.6124 147.999C46.1864 150.043 48.6725 150.558 50.9867 149.778C52.8705 151.912 55.2226 153.44 57.8208 152.967C58.3649 152.868 58.8857 152.655 59.378 152.382C59.6186 152.662 59.8808 152.908 60.1525 153.141C60.2964 153.698 60.4878 154.231 60.728 154.734C62.16 159.193 66.323 162.225 70.7302 159.03C72.0598 158.066 73.5538 156.554 73.8919 154.447C74.1128 154.573 74.341 154.683 74.5747 154.78C75.8485 158.287 78.8974 159.627 82.149 159.211C82.704 159.495 83.2678 159.678 83.8317 159.761C84.9267 160.965 86.3081 161.758 87.728 161.939C89.4665 163.221 91.1953 162.791 92.6634 161.484C92.8602 161.625 93.0648 161.746 93.2769 161.852C93.4759 162.053 93.6881 162.24 93.9131 162.41C94.2737 162.684 94.6489 162.886 95.0297 163.05C96.3947 165.504 98.5029 166.545 100.611 166.124C103.426 168.551 107.888 167.777 110.338 164.908C111.947 165.744 113.88 165.699 115.76 164.627C116.548 164.7 117.307 164.749 118.037 164.723C119.937 166.609 122.688 167.585 125.177 167.378C126.1 168.331 127.194 169.009 128.433 168.995C129.781 168.98 130.95 168.247 132.049 167.161C132.075 167.258 132.101 167.345 132.127 167.414C133.209 170.254 135.347 171.864 137.869 171.758C138.503 171.732 139.114 171.598 139.695 171.379C140.204 171.735 140.769 172.009 141.385 172.195C141.66 172.311 141.942 172.405 142.234 172.474C142.854 173.51 143.688 174.324 144.707 174.774C145.621 175.177 146.499 175.285 147.483 175.324C147.798 175.337 148.207 175.302 148.542 175.264C149.678 175.056 150.647 174.782 151.52 174.15C152.019 176.436 153.244 178.139 155.07 178.923C156.256 179.432 157.736 179.62 158.996 178.81C159.99 181.898 161.974 183.702 165.504 183.035C167.494 182.658 168.627 181.624 169.799 179.785C171.135 179.288 172.41 178.213 173.337 176.614C173.806 177.165 174.361 177.632 175.016 177.989C176.536 178.818 178.162 178.66 179.585 177.789C180.497 177.979 181.494 177.95 182.536 177.719C183.064 177.888 183.601 177.942 184.162 177.872C185.779 178.741 187.669 178.974 189.363 178.085C189.862 177.823 190.276 177.514 190.656 177.152C190.882 177.138 191.108 177.129 191.335 177.103C191.498 177.156 191.66 177.211 191.824 177.247C192.098 177.652 192.436 178.024 192.862 178.362C193.779 179.086 194.656 179.316 195.799 179.205C195.918 179.193 196.201 179.101 196.511 178.989C197.645 179.164 198.734 178.834 199.882 177.972C200.65 178.095 201.459 178.076 202.282 177.994C202.56 178.173 202.859 178.351 203.198 178.543C203.335 178.599 203.434 178.635 203.515 178.661C203.807 178.873 204.122 179.028 204.464 179.111C205.054 179.236 205.631 179.276 206.194 179.228C206.714 179.505 207.274 179.665 207.872 179.709C207.874 179.848 207.87 179.983 207.878 180.126C207.975 181.936 208.569 183.722 209.552 185.05C210.603 188.902 214.935 189.394 218.125 187.36C219.887 188.059 221.93 187.932 223.715 187.016C225.083 188.072 226.81 188.539 228.385 188.473C228.718 188.768 229.068 189.051 229.434 189.346C229.842 189.676 230.044 189.869 230.126 189.979C230.224 190.02 230.321 190.062 230.447 190.118C234.292 191.837 236.496 189.86 237.926 186.54C239.351 187.492 241.122 187.801 242.953 187.566C243.507 187.85 244.07 188.033 244.634 188.115C245.729 189.319 247.11 190.111 248.53 190.293C250.269 191.576 251.997 191.145 253.465 189.838C253.662 189.978 253.867 190.1 254.079 190.206C254.278 190.407 254.49 190.594 254.715 190.765C255.076 191.038 255.451 191.24 255.832 191.403C257.197 193.858 259.305 194.899 261.413 194.478C264.228 196.905 268.69 196.131 271.14 193.261C272.749 194.097 274.682 194.053 276.562 192.981C277.35 193.054 278.109 193.103 278.839 193.077C280.739 194.965 283.49 195.942 285.981 195.733C286.903 196.686 287.996 197.362 289.235 197.349C290.583 197.334 291.752 196.601 292.851 195.515C292.877 195.612 292.903 195.699 292.929 195.768C294.011 198.608 296.149 200.218 298.671 200.112C299.305 200.086 299.917 199.952 300.498 199.733C301.006 200.09 301.572 200.363 302.187 200.549C302.462 200.665 302.744 200.759 303.036 200.828C303.656 201.864 304.49 202.678 305.509 203.128C306.423 203.531 307.301 203.639 308.285 203.678C308.6 203.691 309.009 203.656 309.344 203.618C310.481 203.41 311.449 203.136 312.322 202.504C312.821 204.79 314.047 206.493 315.873 207.277C317.058 207.786 318.538 207.974 319.798 207.164C320.792 210.252 322.777 212.057 326.306 211.389C328.296 211.012 329.43 209.978 330.601 208.139C331.886 207.661 333.112 206.644 334.029 205.144C334.423 205.61 334.88 206.018 335.425 206.336C337.137 207.333 339.03 207.102 340.632 205.988C341.926 206.538 343.26 206.572 344.592 205.925C346.146 207.019 347.961 207.426 349.912 206.532C350.508 206.259 351.005 205.929 351.455 205.506C351.715 205.491 351.975 205.475 352.237 205.443C353.301 205.746 354.421 205.731 355.489 205.4C356.879 206.169 358.627 206.425 360.371 206.266C361.23 206.453 362.149 206.441 363.084 206.348C363.362 206.527 363.661 206.705 364 206.897C364.137 206.953 364.236 206.989 364.317 207.015C364.609 207.228 364.924 207.382 365.266 207.465C365.856 207.59 366.434 207.63 366.996 207.583C367.516 207.86 368.076 208.02 368.674 208.062C368.676 208.202 368.672 208.337 368.68 208.48C368.777 210.29 369.372 212.077 370.354 213.405C371.405 217.256 375.737 217.747 378.927 215.714C380.913 216.502 383.257 216.24 385.185 214.982C385.857 215.075 386.531 215.075 387.197 215.044C387.428 215.194 387.661 215.323 387.895 215.425C388.259 215.975 388.701 216.424 389.247 216.888C389.366 216.989 390.031 217.458 390.575 217.841C393.731 219.827 396.354 218.916 398.153 216.066C400.276 215.728 402.007 213.465 402.693 210.628C403.026 209.254 403.144 208.153 403.118 207.039C403.257 206.526 403.369 206.021 403.452 205.523C403.653 205.009 403.806 204.466 403.909 203.893C403.972 203.587 404.013 203.292 404.047 202.998C404.249 202.274 404.392 201.57 404.456 200.837C404.672 199.927 404.698 199.008 404.573 198.137C404.571 198.072 404.572 198.006 404.568 197.942C404.685 197.785 404.801 197.626 404.92 197.451C405.864 196.066 406.42 193.898 406.218 192.095C406.299 190.767 406.107 189.435 405.536 188.514C405.312 188.153 405.07 187.811 404.82 187.482C404.847 186.908 404.819 186.34 404.735 185.799C405.651 184.678 406.383 183.445 406.811 182.253C407.297 180.898 407.458 179.423 407.291 178.071C408.168 177.145 408.831 175.94 409.248 174.573C409.693 173.692 409.978 172.704 410.097 171.698C410.225 171.313 410.325 170.916 410.39 170.507C410.73 169.796 410.984 169.028 411.117 168.278ZM413.82 125.784C413.821 125.814 413.822 125.831 413.824 125.864C413.823 125.84 413.817 125.815 413.816 125.792C413.817 125.789 413.819 125.787 413.82 125.784ZM29.6301 147.394C29.361 147.399 29.0918 147.404 28.8228 147.409C29.1061 147.426 29.3706 147.395 29.6354 147.364C29.6336 147.374 29.6319 147.384 29.6301 147.394ZM69.446 151.868L69.4487 151.868C69.4483 151.879 69.4479 151.887 69.4475 151.898C69.4466 151.893 69.4467 151.876 69.446 151.868ZM100.379 23.1437C100.377 23.1416 100.376 23.1395 100.374 23.1373C100.532 23.166 100.515 23.1646 100.379 23.1437ZM123.667 165.519C123.169 165.092 122.118 162.64 123.449 164.878C123.579 165.096 123.712 165.324 123.843 165.55C123.785 165.54 123.726 165.53 123.667 165.519ZM173.565 28.4195C173.569 28.4173 173.573 28.4151 173.578 28.4128C173.599 28.44 173.615 28.4619 173.639 28.4914C173.615 28.4648 173.589 28.4453 173.565 28.4195ZM177.452 41.2416C177.451 41.2392 177.451 41.2367 177.45 41.2342C177.452 41.2279 177.454 41.2198 177.456 41.2135C177.46 41.2141 177.463 41.2155 177.467 41.2161C177.462 41.2254 177.458 41.23 177.452 41.2416ZM177.496 41.2832C177.501 41.2645 177.508 41.243 177.512 41.2272C177.525 41.2295 177.542 41.2359 177.555 41.2379C177.589 41.2437 177.622 41.2335 177.656 41.2375C177.6 41.2535 177.555 41.2664 177.496 41.2832ZM262.256 51.687C262.254 51.6849 262.253 51.6828 262.251 51.6806C262.409 51.7093 262.392 51.7079 262.256 51.687ZM284.469 193.873C283.971 193.446 282.92 190.994 284.251 193.232C284.381 193.45 284.514 193.678 284.645 193.904C284.587 193.894 284.528 193.883 284.469 193.873ZM335.442 56.9628C335.446 56.9606 335.45 56.9583 335.455 56.956C335.476 56.9833 335.492 57.0053 335.516 57.0349C335.492 57.0081 335.466 56.9886 335.442 56.9628ZM339.329 69.7849C339.328 69.7825 339.328 69.7802 339.327 69.7777C339.33 69.7713 339.331 69.7633 339.333 69.7569C339.337 69.7575 339.341 69.7588 339.344 69.7595C339.339 69.7687 339.335 69.7733 339.329 69.7849ZM339.373 69.8265C339.378 69.8078 339.385 69.7865 339.389 69.7706C339.403 69.773 339.419 69.7793 339.432 69.7812C339.466 69.7871 339.499 69.777 339.533 69.7809C339.477 69.797 339.432 69.8096 339.373 69.8265ZM415.904 103.377C415.905 103.373 415.905 103.369 415.906 103.365C416.797 104.007 416.758 104.229 415.904 103.377ZM411.213 143.943C411.235 143.905 411.24 144.014 411.22 144.361C411.221 144.339 411.218 144.176 411.213 143.943Z" fill="#023C1D"/>
<path d="M148.66 175.25C148.622 175.254 148.581 175.259 148.541 175.264C148.444 175.281 148.353 175.301 148.253 175.318C148.416 175.29 148.545 175.268 148.66 175.25Z" fill="url(#paint6_linear_2989_103151)"/>
<path d="M125.193 18.7808C125.145 18.7754 124.921 18.7962 124.414 18.8538C124.677 18.8239 124.936 18.8003 125.193 18.7808Z" fill="url(#paint7_linear_2989_103151)"/>
<path d="M404.231 190.127C403.797 188.39 402.938 188.62 403.313 186.201C403.353 185.731 403.527 185.331 403.834 185C405.384 183.321 406.051 181.242 405.834 178.764C406.293 176.876 407.103 176.491 407.968 174.395C408.74 172.526 409.132 170.43 409.734 168.453C409.799 166.763 409.42 163.18 410.066 161.891C410.177 161.671 410.314 161.459 410.468 161.254C411.007 157.618 411.19 154.307 410.701 150.627C410.471 148.896 410.22 147.136 410.037 145.353C409.909 145.118 409.823 144.851 409.823 144.545C409.822 144.403 409.819 144.262 409.816 144.12C409.812 143.928 409.841 143.748 409.882 143.575C409.875 143.47 409.872 143.363 409.865 143.258C409.872 143.363 409.841 143.463 409.824 143.563C409.824 143.563 409.81 143.642 409.796 143.721C410.004 142.538 409.781 142.42 409.772 141.8C409.77 141.635 410.018 141.424 410.02 141.257C410.019 141.223 410.242 141.188 410.248 141.155L410.252 141.135C410.043 136.622 411.657 131.585 412.962 126.704C412.828 126.449 412.615 126.138 412.576 125.791C412.575 125.764 412.518 125.725 412.517 125.699C412.486 125.061 412.746 124.511 413.106 124.063C413.15 124.003 413.189 123.951 413.236 123.895C413.334 123.784 413.426 123.677 413.525 123.579C413.753 122.603 413.953 121.638 414.112 120.696C414.717 117.108 413.724 113.543 416.565 110.973C418.292 109.412 418.444 110.034 419.484 107.454C419.736 106.828 419.944 106.146 420.123 105.433C419.084 105.751 417.99 105.844 417.062 105.582C416.182 105.334 415.435 104.925 414.737 104.241C414.702 104.206 414.635 104.157 414.603 104.121C414.249 103.782 413.905 103.329 413.992 102.836C413.993 102.832 413.993 102.828 413.994 102.824C414.041 102.559 414.091 102.314 414.175 102.085C414.18 102.064 414.202 102.051 414.208 102.029C414.51 100.967 415.575 100.319 416.286 99.8837C416.302 99.8739 416.322 99.8673 416.342 99.859C416.35 99.8543 416.356 99.8467 416.364 99.8421C416.369 99.8394 416.376 99.8246 416.38 99.8218C416.695 99.651 417.02 99.4827 417.342 99.3543C417.601 99.2599 417.868 99.1803 418.135 99.109C418.925 98.8507 419.715 98.9284 420.492 99.0442C420.507 99.0466 420.517 99.0889 420.532 99.0917L420.535 99.0921C420.543 99.0935 420.673 99.1165 420.673 99.1165L420.724 98.8285C420.725 98.8225 420.705 98.9346 420.705 98.9346L420.696 98.9869C420.696 98.9874 421.037 99.067 421.158 99.0994C421.194 99.109 421.214 99.1266 421.25 99.1374C421.344 99.1551 421.661 99.2122 421.66 99.2145C421.674 99.1369 421.688 99.0548 421.702 98.9783C422.405 94.9925 424.745 87.5653 422.896 84.0861C421.415 81.2996 417.461 80.0974 414.989 79.6948C414.046 79.5413 412.799 78.9774 412.678 77.5319C412.432 74.5863 411.676 73.2133 409.58 72.4304C409.044 72.2301 408.468 71.7915 408.071 71.7212C408.067 71.7214 408.118 71.4169 408.116 71.411C406.416 72.497 405.954 72.2565 404.165 72.9311C403.155 73.3123 401.999 73.6062 400.864 73.6134C399.727 73.6199 398.596 73.5975 397.594 73.4886C396.145 73.3312 395.099 73.6261 393.786 73.882C393.769 73.9424 393.955 74.0841 393.946 74.1361L393.961 74.0535C393.959 74.0626 393.469 73.8103 393.464 73.8094C393.463 73.8092 393.462 73.809 393.461 73.8089C393.439 73.8051 393.393 73.945 393.365 73.9802C393.326 73.9878 393.281 74.0168 393.242 74.0242C392.974 74.3583 392.722 74.6784 392.544 74.9396C392.525 74.9682 392.547 74.7055 392.53 74.7327C391.146 76.8903 388.111 76.9675 386.336 76.6545C384.827 76.3883 383.317 76.1221 381.808 75.8559C381.562 75.8127 381.252 76.0492 381.003 75.9473C380.255 75.6412 379.545 75.1918 379.418 74.1027C379.389 73.8517 379.307 73.6977 379.232 73.4702C378.57 71.4547 376.281 70.3624 375.133 69.0664C372.781 66.4116 374.716 67.7607 372.651 69.7242C371.102 71.197 365.79 72.5828 364.914 69.6487C364.855 69.4533 364.815 69.2435 364.798 69.0085C364.722 67.9563 364.574 67.062 364.361 66.2998C363.434 62.9971 361.263 62.2274 358.267 62.3164C357.478 62.3399 353.906 61.6838 352.39 61.143C352.264 61.098 352.153 61.0558 352.054 61.0383C352.054 61.0383 352.053 61.0381 352.052 61.038C351.956 61.0211 351.889 60.931 351.832 60.8931C351.816 60.8823 351.814 60.8599 351.8 60.8494C351.766 60.8225 351.734 60.7893 351.721 60.7648C351.715 60.7537 351.724 60.7408 351.723 60.7303C351.721 60.7103 351.711 60.688 351.726 60.6699C350.431 61.8822 347.936 62.6699 346.063 62.1996C345.204 61.9879 344.474 61.5135 344.048 60.6963C343.134 58.9395 341.969 58.3235 340.66 58.0946C339.877 57.962 339.042 57.9655 338.175 57.945C337.561 58.0982 336.941 58.1692 336.387 58.1655C335.499 58.1596 334.34 57.9765 333.626 57.2843C333.601 57.2599 333.576 57.2356 333.551 57.2112C333.393 57.0743 333.268 56.8973 333.163 56.7029C331.98 56.2506 330.898 55.8827 330.467 56.0865C330.203 56.2112 329.923 56.332 329.633 56.443C329.054 56.6651 328.432 56.8488 327.809 56.9505C327.185 57.0522 326.56 57.0722 325.972 56.967C325.531 56.8878 325.111 56.7384 324.728 56.5003C324.346 56.2622 324.002 55.9351 323.712 55.5009C323.28 54.853 322.924 54.508 322.605 54.373C322.499 54.328 322.396 54.3063 322.297 54.3045C322.187 54.3026 322.081 54.3247 321.976 54.3663C321.451 54.5741 320.957 55.2688 320.248 55.8772C319.965 56.1206 319.648 56.3503 319.28 56.5293C317.858 57.2234 316.323 57.2342 314.862 57.7707C313.945 58.1071 312.843 58.3161 311.812 58.2016C310.782 58.0873 309.823 57.6495 309.194 56.6923C307.999 56.0768 307.495 55.0203 307.681 53.5229C306.476 54.5155 303.833 55.5367 301.934 55.134C301.899 55.1266 301.868 55.1107 301.834 55.1023C301.018 54.9036 300.346 54.4367 300.009 53.5654C298.853 50.577 296.412 49.2275 293.782 48.665C293.676 48.6424 293.573 48.6124 293.467 48.5924C292.551 48.419 291.618 48.3373 290.713 48.3122C290.662 48.3479 290.607 48.3703 290.555 48.4037C289.858 48.8622 289.087 49.2003 288.447 49.2516C288.344 49.2599 288.241 49.2713 288.137 49.2805C288.114 49.2835 288.09 49.2847 288.067 49.2872C287.93 49.3 287.793 49.311 287.657 49.3257C286.211 49.4818 284.306 49.205 283.45 47.6539C283.034 47.5751 282.622 47.4951 282.229 47.4145C279.385 46.832 275.875 47.8622 273.433 48.3109C272.071 48.561 269.606 49.2194 267.676 49.7472C267.288 50.74 266.302 51.4669 265.634 51.8261C265.059 52.1353 264.476 52.332 263.891 52.4777C263.72 52.5261 263.552 52.5703 263.375 52.6052C263.312 52.6161 263.25 52.6263 263.187 52.6355C262.95 52.6701 262.713 52.675 262.476 52.6864C262.277 52.6962 262.078 52.7039 261.88 52.6982C261.817 52.7 261.74 52.6973 261.656 52.6924C261.481 52.6857 261.135 52.643 260.928 52.6152C260.906 52.6123 260.73 52.5862 260.706 52.5832C260.702 52.5834 260.769 52.1921 260.765 52.1915C260.765 52.1915 260.843 51.7924 260.843 51.7925C260.842 51.7923 261.294 51.8719 261.294 51.8719C261.294 51.8719 261.18 52.5192 261.175 52.5465C260.206 52.3474 259.433 51.9993 259.02 51.2134C259.018 51.2112 258.897 51.2163 258.896 51.2141C258.872 51.1817 258.893 50.681 258.874 50.6458C258.859 50.6099 258.872 50.0776 258.854 50.0744C258.804 50.0656 258.754 50.0568 258.704 50.048C258.847 50.0732 256.675 50.5326 256.377 50.5263C254.405 50.4839 250.943 49.4969 249.627 48.1758C248.718 47.2644 248.752 46.551 247.95 45.6244C247.537 44.9947 247.114 44.4229 246.701 43.7933C246.213 43.6081 245.713 43.4909 245.213 43.3784C244.803 43.2926 244.258 43.2239 243.819 43.1887C243.847 43.1954 243.743 43.1937 243.743 43.1945L243.743 43.1976C243.743 43.1951 243.686 43.1865 243.712 43.1883C243.749 43.1908 243.843 43.2113 243.879 43.2143C243.854 43.2084 243.861 43.2079 243.839 43.2026C243.753 43.1944 243.685 43.1743 243.598 43.1682C243.572 43.1664 243.563 43.1662 243.538 43.1647C243.471 43.1696 243.42 43.1745 243.347 43.1799C243.095 43.2591 242.836 43.1989 242.583 43.1347C242.33 43.0706 242.086 43.0033 241.868 43.0692C239.792 43.6968 238.375 44.7602 236.148 44.6633C234.534 44.5932 232.922 44.5006 231.321 44.3692C230.051 44.2654 227.519 42.6967 226.919 42.6929C226.659 42.6914 226.255 42.874 225.808 43.1104C225.063 43.5041 224.202 44.0472 223.702 44.136C222.815 44.2931 222.005 44.1064 221.133 44.1022C220.397 44.0986 219.758 44.0829 219.134 44.0026C218.511 43.9223 217.903 43.7769 217.232 43.5139C215.296 42.7558 213.129 41.5198 211.303 40.4021C210.849 40.1239 210.367 39.8304 209.876 39.5216C208.401 38.5952 206.83 37.5307 205.594 36.3279C204.251 35.0216 203.573 33.1903 201.667 32.7888C201.975 32.527 202.115 32.3804 202.104 32.3444C202.076 32.3207 201.905 32.399 201.572 32.591C200.999 32.8857 200.414 33.0752 199.815 33.1592C199.692 33.1858 199.567 33.19 199.443 33.2063C198.455 33.3667 197.416 33.3389 196.451 33.3678C194.853 33.4156 193.029 33.7417 191.461 33.5337C191.455 33.5329 191.448 33.5333 191.442 33.5325C190.621 33.4203 187.879 32.2026 187.28 31.7739C186.991 32.0173 186.658 32.2427 186.287 32.442C185.693 32.8555 184.768 33.1312 183.832 33.2519C183.727 33.2672 183.623 33.2779 183.518 33.288C183.467 33.2927 183.416 33.2947 183.366 33.2984C183.208 33.3098 183.052 33.3203 182.897 33.3193C182.619 33.3235 182.352 33.3127 182.103 33.2858C182.159 33.2949 182.211 33.3145 182.268 33.3217C182.21 33.3145 182.158 33.2948 182.102 33.2856C182.076 33.2828 182.048 33.2815 182.022 33.2784C181.963 33.2709 181.917 33.252 181.861 33.2428C180.92 33.0887 180.279 32.6685 179.806 31.8165C179.786 31.7826 179.758 31.7592 179.74 31.7241C178.822 29.9603 177.659 29.347 176.35 29.1215C175.591 28.992 174.781 28.9924 173.942 28.9738C173.849 28.9824 173.76 28.9913 173.678 29.001C173.317 29.0822 172.963 29.1312 172.616 29.1575C172.482 29.1743 172.348 29.1848 172.201 29.1838C172.196 29.1837 172.19 29.183 172.186 29.183C172.145 29.1836 172.099 29.1906 172.058 29.1903C171.172 29.1845 170.011 29.0016 169.298 28.3093C169.273 28.285 169.248 28.2606 169.223 28.2362C169.065 28.0994 168.94 27.9224 168.835 27.7284C167.804 27.3344 166.851 27.0051 166.337 27.0609C166.265 27.0695 166.201 27.0858 166.147 27.111C165.091 27.6106 163.787 28.0431 162.554 28.061C161.321 28.0804 160.158 27.6852 159.384 26.5259C158.808 25.6628 158.368 25.3373 157.97 25.3297C157.095 25.3176 156.422 26.8386 154.954 27.5543C153.532 28.2482 151.996 28.2593 150.534 28.7958C149.847 29.048 149.055 29.2287 148.268 29.2549C146.955 29.299 145.653 28.9142 144.866 27.7173C143.671 27.1018 143.167 26.0451 143.353 24.5477C142.599 25.1689 141.282 25.7993 139.936 26.0869C138.154 26.4677 136.323 26.2461 135.682 24.5906C134.297 21.0113 131.073 19.7703 127.884 19.4336C126.809 19.32 125.738 19.3087 124.743 19.3459C123.509 19.392 121.582 19.1263 119.717 18.79C119.096 18.6779 118.481 18.5581 117.901 18.4393C116.48 18.1481 114.891 18.26 113.353 18.5008C111.815 18.7416 110.327 19.1114 109.105 19.3357C107.742 19.5861 105.278 20.2439 103.348 20.772C102.96 21.765 102.08 21.8927 101.413 22.2474C101.021 22.4556 100.698 22.1874 100.336 22.1234L100.334 22.1232C100.049 23.4402 100.108 22.7636 100.049 22.7819C100.04 22.7886 99.9782 23.0903 99.9698 23.0919C99.8693 23.1222 99.7438 23.3056 99.6427 23.3354C99.445 23.3933 99.2349 23.5199 99.0297 23.5596C98.9875 23.5667 98.9388 23.6112 98.8964 23.6176C98.6925 23.6529 98.4857 23.6878 98.2833 23.6933C97.8754 23.7488 97.4831 23.7637 96.955 23.6919C96.9164 23.6869 96.8143 23.6751 96.7726 23.669C96.7247 23.6617 96.6289 23.3574 96.6226 23.3569C96.631 23.3463 96.8296 22.8727 96.8296 22.8727C96.8274 22.8723 96.8251 22.8719 96.8229 22.8715C96.7933 22.8663 96.6899 23.2641 96.6607 23.2579C95.8783 23.1419 94.9438 22.9189 94.4884 22.0536C94.4868 22.0515 94.4676 22.1488 94.466 22.1467C94.4425 22.1142 94.4334 22.1193 94.4146 22.0841C94.4093 22.0714 94.3999 22.0834 94.3949 22.0705C93.2989 22.1525 92.1899 22.1325 90.9619 21.8596C89.9885 21.6435 89.2937 20.8091 88.37 20.4984C87.1335 20.0826 86.3136 20.3676 85.0087 20.3399C82.2534 20.2813 79.5574 18.2987 76.8341 17.7077C74.4605 17.1926 72.6211 16.6284 70.1621 16.6852C68.34 16.7272 65.8945 17.2775 64.2321 16.3895C63.3813 15.9351 62.8268 14.4932 61.9369 14.2512C61.2825 14.0732 59.7728 15.016 59.0273 15.1203C57.1887 15.3776 55.2068 15.341 53.4608 14.8703C49.5072 13.8044 46.002 13.5874 42.9279 9.92845C41.6065 8.35596 40.8137 5.52272 39.1145 4.62382C36.7675 3.38223 36.2143 5.51624 34.9327 8.36394C33.9168 10.6208 32.982 14.0986 31.735 16.0103C30.4354 18.0029 28.6415 18.2094 27.4433 20.2271C26.4071 21.9718 26.9292 24.0764 26.0967 25.8309C25.1053 27.9201 23.8786 28.6251 23.637 31.2584C23.3654 34.219 24.7717 37.9942 26.08 40.1304C26.3083 40.6182 26.3186 41.1447 26.1113 41.7099C24.8143 45.0693 25.4187 49.2246 25.0358 52.8379C24.7817 55.2365 25.0942 58.24 24.7209 60.4477C24.4346 62.1411 23.3803 63.7022 23.2775 65.59C23.1871 67.2493 23.6089 68.6211 23.5046 70.2517C23.3833 72.1508 22.8375 75.1915 22.0784 76.8424C20.7271 79.7814 17.7858 79.8446 16.5745 82.9981C15.6409 85.4286 16.121 90.4637 15.98 93.1581C15.7514 97.5207 11.608 106.274 14.387 109.386C14.9511 110.018 15.1498 110.563 14.8934 111.594C14.1612 114.536 14.0112 116.503 13.0705 119.245C12.3684 121.291 11.541 123.354 11.4382 125.625C11.3097 128.464 11.8055 126.372 11.6121 128.254C11.4784 129.553 10.6229 130.793 10.6572 132.292C10.6724 132.959 11.1435 134.57 11.3552 135.479C12.2098 139.147 12.0385 137.99 14.1034 140.209C16.0751 142.328 16.8305 145.993 19.9851 145.922C20.1186 145.892 20.2461 145.866 20.3584 145.849C21.7499 145.642 23.6616 143.284 25.7887 143.329C26.7079 143.349 27.5866 143.493 28.4314 143.737C28.4624 143.738 28.4963 143.742 28.5286 143.744C28.6487 143.749 28.7671 143.766 28.8861 143.779C28.9367 143.786 28.986 143.791 29.0379 143.8C29.44 143.854 29.8383 143.941 30.2264 144.11C30.4778 144.22 31.0041 144.565 31.3338 145.023C31.6369 145.204 31.9371 145.393 32.2314 145.596C33.2798 146.321 33.0521 147.286 34.6275 147.296C36.4322 147.309 34.218 147.481 35.3925 145.62C36.6731 143.59 40.0212 144.106 41.5789 144.288C44.2789 144.604 46.5993 145.96 49.2285 146.377C51.7337 146.774 53.5294 149.016 55.9462 149.271C58.181 149.506 60.1262 148.172 61.9287 150.47C62.196 150.811 62.5178 151.471 62.8778 152.231C62.8776 152.224 62.8782 152.218 62.8781 152.212C62.8777 152.205 62.8747 152.201 62.8745 152.195C62.8739 152.185 62.8733 152.175 62.8728 152.165C62.8425 151.577 63.0894 151.071 63.4115 150.644C63.4168 150.635 63.4211 150.626 63.4263 150.618C63.4286 150.615 63.4315 150.612 63.4339 150.609C63.4452 150.591 63.4562 150.572 63.4677 150.555C63.651 150.278 63.8993 150.042 64.1664 149.824C64.1685 149.822 64.1708 149.819 64.1728 149.818C64.3662 149.639 64.5772 149.486 64.7886 149.348C65.2198 149.085 65.6664 148.865 66.0431 148.721C66.1375 148.688 66.2385 148.617 66.3331 148.588C66.4872 148.536 66.6565 148.418 66.8131 148.377C66.957 148.339 67.1077 148.259 67.253 148.23C68.0773 148.068 68.9503 147.849 69.7388 147.988C69.7502 147.99 69.7616 147.992 69.7732 147.994C69.774 147.994 69.7749 147.994 69.7758 147.995C69.7831 147.996 69.7929 147.998 69.8005 147.999C69.8689 148.011 69.9248 148.149 70.0023 148.168C70.0997 148.194 70.1982 148.206 70.2849 148.279C71.0923 148.567 72.0317 149.578 71.9891 150.743C71.9888 150.75 71.9265 151.108 71.9274 151.109L71.9286 151.109C71.9441 151.112 71.9554 151.082 71.9357 151.203C71.9347 151.209 71.9629 151.055 71.9619 151.061C73.2131 150.922 74.4285 151.018 75.1416 151.364C77.9286 152.718 78.5999 155.399 82.0454 155.814C83.2732 155.962 84.4806 156.405 85.604 156.947C85.9197 157.1 87.9076 158.15 88.6216 158.783C89.2129 158.597 90.0192 158.403 90.3494 158.311C91.5007 157.989 92.646 157.936 93.7408 158.296C95.737 158.951 97.2498 160.811 99.0278 161.942C102.144 163.926 104.302 163.219 107.685 161.944C109.828 161.136 112.241 161.636 114.403 161.338C115.974 161.121 117.557 161.138 119.041 161.552C119.259 161.425 119.483 161.313 119.707 161.214C119.931 161.114 120.156 161.029 120.375 160.955C120.812 160.807 121.224 160.708 121.563 160.648C122.865 160.417 124.556 160.438 125.613 161.48C126.185 162.044 126.63 162.931 127.063 163.674C127.242 163.98 127.266 164.34 127.205 164.696C127.185 164.816 127.156 164.935 127.119 165.052C127.503 165.226 127.737 165.339 127.722 165.352C129.326 163.993 134.473 162.32 135.393 165.309C136.751 169.72 139.18 167.606 141.953 168.488C143.152 168.87 144.744 170.46 146.182 171.348C146.652 171.106 147.174 170.915 147.776 170.826C147.939 170.801 148.102 170.777 148.265 170.753C149.206 170.613 149.982 170.75 150.618 171.05C152.436 170.633 154.598 170.64 155.159 172.405C155.481 173.921 156.121 175.138 157.08 176.056C158.526 175.504 161.914 175.015 162.748 177.135C163.682 179.511 163.698 179.324 165.34 178.895C165.886 178.752 169.019 175.556 168.932 175.676C170.697 173.244 174.986 172.454 176.831 174.277C178.141 175.571 180.49 174.641 182.19 174.627C183.826 174.614 185.498 175.122 187.092 175.08C188.796 175.036 192.293 172.76 194.403 174.296C194.84 174.389 195.238 174.597 195.598 174.92C195.453 175.359 195.308 175.799 195.163 176.238C195.498 176.401 197.181 175.928 197.595 175.807C198.589 175.518 200.199 174.876 201.616 174.819C204.573 174.702 207.409 175.837 210.227 176.644C211.079 176.887 212.521 177.293 212.543 178.807C212.571 180.755 213.228 182.135 214.069 183.469C215.53 185.788 215.018 185.116 217.105 184.735C219.39 184.319 221.722 184.188 223.993 184.065C226.507 183.929 229.253 184.625 231.518 185.691C231.727 185.789 231.926 185.912 232.119 186.045C232.129 186.049 232.14 186.051 232.15 186.054C232.367 186.132 232.584 186.209 232.802 186.286C233.244 186.444 233.605 186.634 233.907 186.846C233.954 186.747 233.997 186.656 234.052 186.543C235.543 183.486 239.52 182.836 241.671 183.879C244.406 185.205 249.374 184.092 251.5 187.388C251.785 187.48 252.071 187.572 252.356 187.663C252.954 187.369 253.552 187.043 254.193 186.929C258.713 186.129 261.343 191.315 265.513 191.937C268.097 192.322 270.113 190.558 272.745 190.35C274.797 190.188 276.782 190.148 278.858 190.011C280.11 189.929 281.128 190.106 282.111 190.437C283.021 189.865 284.079 189.559 284.8 189.431C286.102 189.201 287.793 189.221 288.849 190.263C289.421 190.827 289.857 191.768 290.29 192.511C290.493 192.859 290.637 193.775 290.618 193.771L290.506 193.752C290.506 193.752 290.525 193.646 290.525 193.647C290.51 193.73 290.85 193.876 290.957 193.979C292.158 193.069 294.881 192.107 296.724 192.501C297.628 192.658 298.403 193.137 298.701 194.105C299.362 196.252 300.287 196.851 301.359 197.001C302.345 197.118 303.479 196.897 304.677 197.14C304.861 197.176 305.053 197.221 305.241 197.28C306.776 197.769 308.936 200.236 310.603 200.675C310.978 200.769 311.329 200.761 311.64 200.602C312.571 200.122 314.661 199.437 316.298 199.643C317.276 199.762 318.094 200.199 318.409 201.19C318.731 202.704 319.364 203.919 320.321 204.838C321.226 204.493 322.885 204.174 324.207 204.499C325.002 204.694 325.675 205.122 325.988 205.918C326.571 207.402 326.796 207.886 327.282 207.936C327.575 207.966 327.962 207.839 328.577 207.678C329.063 207.55 332.123 204.55 332.056 204.638C333.475 202.76 336.09 201.956 338.148 202.389C338.834 202.533 339.458 202.814 339.956 203.239C340.327 203.555 340.866 203.705 341.502 203.752C343.411 203.894 346.192 203.113 347.918 203.151C348.213 203.157 348.501 203.199 348.786 203.256C349.357 203.371 349.915 203.547 350.489 203.625C350.776 203.664 351.068 203.679 351.367 203.649C352.768 203.511 354.207 202.726 355.679 202.661C358.706 202.528 361.719 202.81 364.692 203.329C367.665 203.849 370.598 204.607 373.464 205.426C374.316 205.67 375.758 206.076 375.78 207.59C375.798 208.862 377.036 213.434 378.186 213.931C379.208 214.372 380.509 213.383 381.555 213.197C384.309 212.71 387.391 212.378 390.149 212.424C394.137 212.489 397.989 218.999 401.044 211.82C402.182 209.145 402.676 203.591 403.145 200.49C403.689 196.895 405.191 193.973 404.231 190.127Z" fill="#011E0E"/>
<defs>
<linearGradient id="paint0_linear_2989_103151" x1="294.493" y1="201.034" x2="310.214" y2="203.806" gradientUnits="userSpaceOnUse">
<stop stop-color="#FBF3FA"/>
<stop offset="0.5364" stop-color="#E5DDDE"/>
<stop offset="1" stop-color="#FFF6FF"/>
</linearGradient>
<linearGradient id="paint1_linear_2989_103151" x1="201.562" y1="184.942" x2="231.643" y2="190.246" gradientUnits="userSpaceOnUse">
<stop stop-color="#FBF3FA"/>
<stop offset="0.5364" stop-color="#E5DDDE"/>
<stop offset="1" stop-color="#FFF6FF"/>
</linearGradient>
<linearGradient id="paint2_linear_2989_103151" x1="131.185" y1="172.089" x2="150.049" y2="175.415" gradientUnits="userSpaceOnUse">
<stop stop-color="#FBF3FA"/>
<stop offset="0.5364" stop-color="#E5DDDE"/>
<stop offset="1" stop-color="#FFF6FF"/>
</linearGradient>
<linearGradient id="paint3_linear_2989_103151" x1="292.003" y1="200.446" x2="310.85" y2="203.769" gradientUnits="userSpaceOnUse">
<stop stop-color="#FBF3FA"/>
<stop offset="0.5364" stop-color="#E5DDDE"/>
<stop offset="1" stop-color="#FFF6FF"/>
</linearGradient>
<linearGradient id="paint4_linear_2989_103151" x1="346.862" y1="210.263" x2="393.624" y2="218.508" gradientUnits="userSpaceOnUse">
<stop stop-color="#FBF3FA"/>
<stop offset="0.5364" stop-color="#E5DDDE"/>
<stop offset="1" stop-color="#FFF6FF"/>
</linearGradient>
<linearGradient id="paint5_linear_2989_103151" x1="258.014" y1="42.3061" x2="288.535" y2="47.6878" gradientUnits="userSpaceOnUse">
<stop stop-color="#FBF3FA"/>
<stop offset="0.5364" stop-color="#E5DDDE"/>
<stop offset="1" stop-color="#FFF6FF"/>
</linearGradient>
<linearGradient id="paint6_linear_2989_103151" x1="133.701" y1="172.682" x2="149.41" y2="175.452" gradientUnits="userSpaceOnUse">
<stop stop-color="#FBF3FA"/>
<stop offset="0.5364" stop-color="#E5DDDE"/>
<stop offset="1" stop-color="#FFF6FF"/>
</linearGradient>
<linearGradient id="paint7_linear_2989_103151" x1="96.1339" y1="13.762" x2="126.656" y2="19.1439" gradientUnits="userSpaceOnUse">
<stop stop-color="#FBF3FA"/>
<stop offset="0.5364" stop-color="#E5DDDE"/>
<stop offset="1" stop-color="#FFF6FF"/>
</linearGradient>
</defs>
</svg>
