<svg width="49" height="67" viewBox="0 0 49 67" fill="none" xmlns="http://www.w3.org/2000/svg">
<path d="M47.1742 14.811H44.2486C43.7115 14.811 43.2764 15.2463 43.2764 15.7833C43.2764 16.3202 43.7115 16.7555 44.2486 16.7555H47.1741C47.7111 16.7555 48.1463 16.3202 48.1463 15.7833C48.1463 15.2463 47.7111 14.811 47.1742 14.811Z" fill="#FC7008"/>
<path d="M43.7712 12.9353C43.9246 12.9353 44.0803 12.8988 44.2252 12.8221L46.8106 11.4533C47.2852 11.2021 47.4663 10.6137 47.2151 10.1392C46.9639 9.66473 46.3753 9.48338 45.9009 9.73486L43.3155 11.1036C42.8409 11.3548 42.6598 11.9432 42.911 12.4178C43.0856 12.7473 43.4225 12.9353 43.7712 12.9353Z" fill="#FC7008"/>
<path d="M43.3155 20.4626L45.9009 21.8314C46.0458 21.9081 46.2015 21.9445 46.3549 21.9445C46.7034 21.9445 47.0405 21.7566 47.2151 21.4271C47.4663 20.9525 47.2852 20.3641 46.8106 20.1129L44.2252 18.7441C43.7506 18.4927 43.1624 18.674 42.911 19.1484C42.6598 19.6231 42.8409 20.2114 43.3155 20.4626Z" fill="#FC7008"/>
<path d="M42.5648 25.1812H41.3683V20.4822C41.3683 19.5172 40.5833 18.7322 39.6183 18.7322H35.9887C35.0237 18.7322 34.2387 19.5172 34.2387 20.4822V25.1812H13.8325V17.5862C13.8325 11.9121 18.3821 7.26817 23.9739 7.23408C23.9941 7.23395 24.0144 7.23395 24.0347 7.23395C28.111 7.23395 31.7852 9.65037 33.4077 13.4051C33.7338 14.1565 34.5274 14.5742 35.3359 14.4207L38.9694 13.7337C39.4771 13.6376 39.9141 13.3242 40.1683 12.8737C40.4227 12.423 40.4649 11.8867 40.2845 11.4019C37.7657 4.64137 31.239 0.104492 24.0364 0.104492C24.0272 0.104492 24.0173 0.104492 24.008 0.104492C14.4659 0.119529 6.70282 7.97867 6.70282 17.6238V25.1812H5.50647C2.63454 25.1812 0.297852 27.5183 0.297852 30.391V54.187C0.297852 54.7239 0.733016 55.1592 1.27007 55.1592C1.80712 55.1592 2.24229 54.7239 2.24229 54.187V53.1196H6.20465C7.66998 53.1196 8.86204 51.9275 8.86204 50.4622C8.86204 48.9969 7.66998 47.8048 6.20465 47.8048H2.24229V43.8515H6.20465C7.66998 43.8515 8.86204 42.6595 8.86204 41.1941C8.86204 39.7288 7.66998 38.5367 6.20465 38.5367H2.24229V30.391C2.24229 28.5904 3.70657 27.1256 5.50647 27.1256H12.6399L9.30952 31.5177C8.84286 32.1329 8.83171 32.9676 9.28152 33.5948L11.3914 36.5376L10.7603 38.3956C10.5371 39.0532 10.779 39.7486 11.3618 40.1261C11.6151 40.2902 11.8968 40.3709 12.1761 40.3709C12.5396 40.3709 12.8992 40.2342 13.1869 39.9669L16.3803 36.9996C17.0239 36.4016 17.1232 35.4122 16.6113 34.6979L15.1325 32.6354L19.3112 27.1256H42.5648C44.3645 27.1256 45.8288 28.5904 45.8288 30.391V30.5777H36.7068C35.8168 30.5777 35.0227 31.1752 34.7755 32.0325L33.1712 37.6291C33.1666 37.6452 33.1575 37.6589 33.1466 37.6669L30.1002 39.8556C29.9848 38.3397 29.3017 36.9038 28.1828 35.8611C26.9348 34.6978 25.305 34.1239 23.597 34.2441C20.6025 34.455 18.1825 36.8719 17.968 39.866C17.8076 42.1013 18.8792 44.2379 20.7646 45.4421C20.8002 45.4649 20.8215 45.5014 20.8215 45.5398V46.5193L15.2145 50.547C14.5476 51.0266 14.2368 51.8828 14.441 52.6767L16.2522 59.7517C16.2572 59.7713 16.2522 59.7921 16.2387 59.8082L12.2977 64.5301H5.50647C3.70657 64.5301 2.24229 63.0659 2.24229 61.266V58.724C2.24229 58.1871 1.80712 57.7518 1.27007 57.7518C0.733016 57.7518 0.297852 58.1871 0.297852 58.724V61.266C0.297852 64.1379 2.63441 66.4745 5.50647 66.4745H42.5648C45.4367 66.4745 47.7733 64.1381 47.7733 61.266V30.391C47.7733 27.5183 45.4367 25.1812 42.5648 25.1812ZM6.20478 49.7493C6.59795 49.7493 6.91774 50.069 6.91774 50.4622C6.91774 50.8554 6.59795 51.1752 6.20478 51.1752H2.24229V49.7493H6.20478ZM6.20478 40.4812C6.59795 40.4812 6.91774 40.801 6.91774 41.1941C6.91774 41.5873 6.59795 41.9071 6.20478 41.9071H2.24229V40.4812H6.20478ZM36.183 20.6766H39.4237V25.1812H36.183V20.6766ZM8.64738 17.6238C8.64738 9.04914 15.5396 2.06228 24.0113 2.04893H24.0364C30.3539 2.04893 36.0871 5.98226 38.3804 11.866L35.1255 12.4815C33.1627 8.10013 28.8335 5.28939 24.0346 5.28939C24.0107 5.28939 23.9861 5.28939 23.9621 5.28952C17.3044 5.33009 11.8878 10.8463 11.8878 17.5861V25.1811H8.64712V17.6238H8.64738ZM13.4965 31.5748C13.03 32.1899 13.0189 33.0247 13.4687 33.6519L14.9311 35.6916L13.1793 37.3194L13.2646 37.0682C13.4456 36.5351 13.358 35.9438 13.0299 35.4859L10.9453 32.5785L15.0802 27.1256H16.8708L13.4965 31.5748ZM45.8288 59.9335V61.2661C45.8288 61.3291 45.8266 61.3915 45.8231 61.4536L39.217 58.9806L38.011 55.9551L40.3545 57.7951C40.4941 57.9055 40.6508 57.994 40.824 58.0596L45.8288 59.9335ZM45.8288 41.9071H41.8665C41.4733 41.9071 41.1535 41.5873 41.1535 41.1941C41.1535 40.801 41.4733 40.4812 41.8665 40.4812H45.8288V41.9071ZM45.8288 51.1752H41.8665C41.4733 51.1752 41.1535 50.8554 41.1535 50.4622C41.1535 50.069 41.4733 49.7493 41.8665 49.7493H45.8288V51.1752ZM19.9072 40.0051C20.0532 37.9699 21.698 36.3271 23.7336 36.1837C23.8355 36.1766 23.9367 36.173 24.0378 36.173C25.0907 36.173 26.0822 36.5615 26.8571 37.2835C27.7071 38.0757 28.1751 39.1513 28.1751 40.3124C28.1751 41.7286 27.4622 43.0318 26.2681 43.7982C25.6654 44.1852 25.3055 44.8366 25.3055 45.5409V54.2134C25.3055 54.9006 24.7469 55.47 24.0604 55.483C23.7326 55.4883 23.4196 55.3601 23.1749 55.1199C22.915 54.8649 22.766 54.513 22.766 54.1547V45.5398C22.766 44.8344 22.4092 44.1852 21.8115 43.8033C20.5276 42.9837 19.7979 41.5282 19.9072 40.0051ZM42.5648 64.5301H14.8304L17.7322 61.0534C18.1449 60.558 18.2957 59.8903 18.1356 59.2684L16.3244 52.1935C16.318 52.1689 16.3284 52.141 16.3493 52.126L20.8213 48.9135V54.1547C20.8213 55.0318 21.1826 55.8894 21.8126 56.5077C22.4185 57.1023 23.2063 57.4277 24.0368 57.4277C24.0566 57.4277 24.0767 57.4276 24.0965 57.4272C25.8351 57.3946 27.2496 55.9529 27.2496 54.2135V45.541C27.2496 45.502 27.2753 45.4623 27.3182 45.4347C28.4189 44.7281 29.2407 43.7108 29.7005 42.5366L34.2811 39.2458C34.6447 38.9844 34.9138 38.6019 35.0396 38.167L36.644 32.5698C36.6521 32.5413 36.6774 32.5221 36.7066 32.5221H45.8286V38.5367H41.8662C40.4009 38.5367 39.2088 39.7288 39.2088 41.1941C39.2088 42.6595 40.4009 43.8515 41.8662 43.8515H45.8286V47.8048H41.8662C40.4009 47.8048 39.2088 48.9969 39.2088 50.4622C39.2088 51.9275 40.4009 53.1196 41.8662 53.1196H45.8286V57.8573L41.534 56.2492L38.644 53.9802C38.0132 53.4842 37.1577 53.4739 36.515 53.9542C35.8722 54.4346 35.6399 55.2582 35.937 56.0041L37.4428 59.7823C37.6263 60.2395 37.9952 60.6002 38.4541 60.7715L45.1364 63.2727C44.5384 64.0372 43.6083 64.5301 42.5648 64.5301Z" fill="#FC7008"/>
</svg>
