<svg width="16" height="17" viewBox="0 0 16 17" fill="none" xmlns="http://www.w3.org/2000/svg">
<path d="M12.9166 3.22168C11.4063 3.22168 10.1593 4.37008 10.0027 5.83948C11.0988 6.51951 11.8304 7.73373 11.8304 9.11583V11.0915C11.8304 11.8122 11.5057 12.4747 10.9738 12.9161V15.5694C10.9738 15.8241 11.1802 16.0306 11.4349 16.0306H14.3984C14.653 16.0306 14.8595 15.8241 14.8595 15.5694V10.9835C15.4331 10.7904 15.8473 10.2475 15.8473 9.60972V6.15234C15.8473 4.53639 14.5326 3.22168 12.9166 3.22168Z" fill="#652C01"/>
<path d="M12.9165 3.2219C13.7245 3.2219 14.3819 2.56456 14.3819 1.75655C14.3082 -0.184758 11.5246 -0.184205 11.4512 1.75658C11.4512 2.56456 12.1085 3.2219 12.9165 3.2219Z" fill="#652C01"/>
<path d="M9.44261 4.72023C9.44261 3.91222 8.78527 3.25488 7.97727 3.25488C6.03596 3.32854 6.03648 6.11219 7.9773 6.18557C8.78524 6.18557 9.44261 5.52823 9.44261 4.72023Z" fill="#652C01"/>
<path d="M7.97717 6.18555C6.46688 6.18555 5.21989 7.33395 5.06323 8.80335C6.15937 9.48338 6.89099 10.6976 6.89099 12.0797V12.5736C6.89099 13.2943 6.5662 13.9568 6.03432 14.3982V15.5698C6.03432 15.8245 6.24078 16.031 6.49544 16.031H9.4589C9.71356 16.031 9.92002 15.8245 9.92002 15.5698V12.4656C10.4936 12.2726 10.9078 11.7297 10.9078 11.0919V9.11621C10.9078 7.50023 9.59314 6.18555 7.97717 6.18555Z" fill="#652C01"/>
<path d="M3.03808 9.14893C1.4166 9.14893 0.107422 10.4614 0.107422 12.0796V12.5735C0.107422 13.2113 0.52163 13.7542 1.09523 13.9472V15.5697C1.09523 15.8244 1.30169 16.0309 1.55635 16.0309H4.51981C4.77447 16.0309 4.98093 15.8244 4.98093 15.5697V13.9472C5.55453 13.7542 5.96874 13.2113 5.96874 12.5735V12.0796C5.96877 10.4584 4.65667 9.14893 3.03808 9.14893Z" fill="#652C01"/>
<path d="M3.0381 9.14866C3.84607 9.14866 4.50344 8.49132 4.50344 7.68331C4.42979 5.742 1.64613 5.74255 1.57275 7.68334C1.57278 8.49132 2.23013 9.14866 3.0381 9.14866Z" fill="#652C01"/>
</svg>
