<svg width="16" height="16" viewBox="0 0 16 16" fill="none" xmlns="http://www.w3.org/2000/svg">
<path d="M7.99742 0.443359C6.48637 0.443359 5.00926 0.891437 3.75287 1.73093C2.49648 2.57043 1.51724 3.76363 0.938986 5.15966C0.360732 6.55568 0.209435 8.09183 0.504226 9.57385C0.799017 11.0559 1.52666 12.4172 2.59513 13.4857C3.6636 14.5541 5.02492 15.2818 6.50693 15.5766C7.98895 15.8713 9.5251 15.72 10.9211 15.1418C12.3172 14.5635 13.5104 13.5843 14.3499 12.3279C15.1893 11.0715 15.6374 9.59441 15.6374 8.08336C15.635 6.05784 14.8293 4.11596 13.3971 2.6837C11.9648 1.25144 10.0229 0.445749 7.99742 0.443359ZM10.5721 10.658C10.4419 10.7882 10.2652 10.8614 10.0811 10.8614C9.89689 10.8614 9.72026 10.7882 9.59002 10.658L7.50638 8.5744C7.37612 8.44418 7.30292 8.26755 7.30288 8.08336V3.91609C7.30288 3.73188 7.37605 3.55522 7.50631 3.42497C7.63656 3.29472 7.81322 3.22154 7.99742 3.22154C8.18163 3.22154 8.35829 3.29472 8.48854 3.42497C8.61879 3.55522 8.69197 3.73188 8.69197 3.91609V7.79582L10.5721 9.67595C10.7023 9.8062 10.7755 9.98283 10.7755 10.167C10.7755 10.3512 10.7023 10.5278 10.5721 10.658Z" fill="#652C01"/>
</svg>
