<svg width="17" height="14" viewBox="0 0 17 14" fill="none" xmlns="http://www.w3.org/2000/svg">
<path d="M8.6812 0.332031C7.04573 0.332031 5.71484 1.71633 5.71484 3.41819C5.71484 5.08902 6.96851 6.44228 8.60686 6.49714C8.65377 6.49281 8.70501 6.49208 8.74687 6.49714C8.75698 6.49786 8.76708 6.49858 8.77719 6.49858H8.78729C10.3845 6.44301 11.6411 5.09046 11.6475 3.41891C11.6475 1.71705 10.3174 0.332753 8.6812 0.332753V0.332031Z" fill="#652C01"/>
<path d="M11.8536 8.23155C10.1106 7.02119 7.26549 7.01975 5.51094 8.23155C5.51094 8.23155 5.51094 8.23155 5.5095 8.23155C4.71991 8.78152 4.28543 9.52707 4.28687 10.3304C4.28831 11.1315 4.7228 11.8735 5.51022 12.4184C6.38497 13.0275 7.53326 13.3321 8.68227 13.3321C9.83128 13.3321 10.9796 13.0275 11.8543 12.4184C12.6439 11.8677 13.0784 11.1228 13.0769 10.3195C13.0755 9.51841 12.641 8.77647 11.8536 8.23155Z" fill="#652C01"/>
<path d="M15.5452 3.80139C15.6448 5.06227 14.7845 6.16436 13.5886 6.31737L13.5763 6.31882L13.5582 6.32026C13.5214 6.31737 13.4854 6.32026 13.45 6.33036C12.8452 6.35996 12.288 6.15787 11.8687 5.79195C12.511 5.19651 12.8784 4.29722 12.8026 3.32504C12.7586 2.79817 12.5839 2.31532 12.319 1.90971C12.5579 1.78701 12.83 1.70545 13.1137 1.67947C14.3493 1.56688 15.4369 2.51669 15.5452 3.80211V3.80139Z" fill="#652C01"/>
<path d="M16.7985 9.81326C16.7458 10.4412 16.3611 10.9868 15.7094 11.3585C15.0837 11.7194 14.2984 11.8825 13.516 11.8637C13.9657 11.4415 14.2291 10.9175 14.276 10.3538C14.3374 9.55055 13.97 8.77323 13.2317 8.15759C12.8152 7.81332 12.3244 7.53978 11.7954 7.34202C13.1783 6.9263 14.9104 7.20778 15.9829 8.10201C16.5567 8.58486 16.8505 9.19184 16.7985 9.81326Z" fill="#652C01"/>
<path d="M1.81082 3.80139C1.71122 5.06227 2.57153 6.16436 3.76746 6.31737L3.77973 6.31882L3.79777 6.32026C3.83458 6.31737 3.87067 6.32026 3.90603 6.33036C4.51085 6.35996 5.06803 6.15787 5.48736 5.79195C4.84501 5.19651 4.47765 4.29722 4.55343 3.32504C4.59746 2.79817 4.77212 2.31532 5.037 1.90971C4.7981 1.78701 4.52601 1.70545 4.24236 1.67947C3.00674 1.56688 1.91908 2.51669 1.81082 3.80211V3.80139Z" fill="#652C01"/>
<path d="M0.558621 9.81326C0.611308 10.4412 0.995995 10.9868 1.64773 11.3585C2.27348 11.7194 3.05873 11.8825 3.8411 11.8637C3.39145 11.4415 3.12802 10.9175 3.0811 10.3538C3.01975 9.55055 3.38712 8.77323 4.12546 8.15759C4.5419 7.81332 5.03269 7.53978 5.56172 7.34202C4.17887 6.9263 2.44669 7.20778 1.37419 8.10201C0.800404 8.58486 0.506656 9.19184 0.558621 9.81326Z" fill="#652C01"/>
</svg>
